{
 "cells": [
  {
   "cell_type": "markdown",
   "metadata": {},
   "source": [
    "# Develop our pipeline"
   ]
  },
  {
   "cell_type": "markdown",
   "metadata": {},
   "source": [
    "In this notebook, we will develop our Azure Machine Learning Pipeline. The Azure Machine learning pipeline will string together the steps of preprocessing the video, applying style transfer, and postprocessing the video into a single execution graph. \n",
    "\n",
    "To setup the pipeline, we'll need to make sure we have the necessary compute and storage available. To do so, we'll need to create our compute platform using AmlCompute and register the storage account that we created in the previous notebook.\n",
    "\n",
    "The last step of this notebook is to publish the pipeline. Once it's published as a public endpoint, we'll test it to make sure that it runs as expected."
   ]
  },
  {
   "cell_type": "markdown",
   "metadata": {},
   "source": [
    "---"
   ]
  },
  {
   "cell_type": "markdown",
   "metadata": {},
   "source": [
    "### Import package and load .env"
   ]
  },
  {
   "cell_type": "code",
   "execution_count": 33,
   "metadata": {},
   "outputs": [],
   "source": [
    "from dotenv import set_key, get_key, find_dotenv, load_dotenv\n",
    "from pathlib import Path\n",
    "from azureml.core import Workspace, Run, Experiment\n",
    "from azureml.core.compute import AmlCompute, ComputeTarget\n",
    "from azureml.core.datastore import Datastore\n",
    "from azureml.data.data_reference import DataReference\n",
    "from azureml.pipeline.core import Pipeline, PipelineData\n",
    "from azureml.pipeline.steps import PythonScriptStep, MpiStep\n",
    "from azureml.core.runconfig import CondaDependencies, RunConfiguration\n",
    "from azureml.core.runconfig import DEFAULT_CPU_IMAGE #, DEFAULT_GPU_IMAGE\n",
    "from IPython.core.display import display, HTML\n",
    "from azureml.data.datapath import DataPath, DataPathComputeBinding\n",
    "from azureml.pipeline.core.graph import PipelineParameter\n",
    "from azureml.pipeline.core.schedule import ScheduleRecurrence, Schedule\n",
    "from azureml.core.authentication import AzureCliAuthentication\n",
    "import subprocess\n",
    "import requests\n",
    "import json\n",
    "import os\n",
    "\n",
    "from MetricsUtils.hpStatisticsCollection import statisticsCollector, CollectionEntry\n",
    "from MetricsUtils.storageutils import storageConnection"
   ]
  },
  {
   "cell_type": "code",
   "execution_count": 3,
   "metadata": {},
   "outputs": [
    {
     "data": {
      "text/plain": [
       "True"
      ]
     },
     "execution_count": 3,
     "metadata": {},
     "output_type": "execute_result"
    }
   ],
   "source": [
    "env_path = find_dotenv(raise_error_if_not_found=True)\n",
    "load_dotenv(env_path)"
   ]
  },
  {
   "cell_type": "markdown",
   "metadata": {},
   "source": [
    "### Setup the workspace in AML"
   ]
  },
  {
   "cell_type": "markdown",
   "metadata": {},
   "source": [
    "Get our workspace from the config file."
   ]
  },
  {
   "cell_type": "code",
   "execution_count": 4,
   "metadata": {
    "tags": [
     "stripout"
    ]
   },
   "outputs": [
    {
     "name": "stdout",
     "output_type": "stream",
     "text": [
      "Workspace name: jiata-bsdlaml-0\n",
      "Azure region: southcentralus\n",
      "Subscription id: 989b90f7-da4f-41f9-84c9-44848802052d\n",
      "Resource group: jiata-bsdlaml-0\n"
     ]
    }
   ],
   "source": [
    "ws = Workspace.from_config()\n",
    "print('Workspace name: ' + ws.name, \n",
    "      'Azure region: ' + ws.location, \n",
    "      'Subscription id: ' + ws.subscription_id, \n",
    "      'Resource group: ' + ws.resource_group, sep = '\\n')\n",
    "\n",
    "# Also create a Project and attach to Workspace\n",
    "project_folder = \"scripts\"\n",
    "run_history_name = project_folder\n",
    "\n",
    "if not os.path.isdir(project_folder):\n",
    "    os.mkdir(project_folder)"
   ]
  },
  {
   "cell_type": "markdown",
   "metadata": {},
   "source": [
    "### Setup the compute"
   ]
  },
  {
   "cell_type": "markdown",
   "metadata": {},
   "source": [
    "Create our compute using `AmlCompute`. We'll need one node for the video pre/post processing. And the remaining nodes for performing the style transfer. Since we'll be using the MPI Step, all nodes must be active before the MPI step will execute. Thus, we should set max nodes to equal min nodes, as there is no point autoscaling the cluster."
   ]
  },
  {
   "cell_type": "markdown",
   "metadata": {},
   "source": [
    "Set the number of nodes we want for each cluster."
   ]
  },
  {
   "cell_type": "code",
   "execution_count": 5,
   "metadata": {},
   "outputs": [],
   "source": [
    "style_transfer_node_count = 4\n",
    "ffmpeg_node_count = 1"
   ]
  },
  {
   "cell_type": "markdown",
   "metadata": {},
   "source": [
    "Verify that the subscription in use has enough cores. We need to check for two vm types since we'll be using NCSv2 for style transfer and DSv2 for ffmpeg processes. If you do not have quota for the NCSv2 family, you can use another GPU family instead."
   ]
  },
  {
   "cell_type": "code",
   "execution_count": 6,
   "metadata": {},
   "outputs": [],
   "source": [
    "vm_dict = {\n",
    "    \"NCSv2\": {\n",
    "        \"size\": \"STANDARD_NC6s_v2\",\n",
    "        \"cores\": 6\n",
    "    },\n",
    "    \"NCSv3\": {\n",
    "        \"size\": \"STANDARD_NC6s_v3\",\n",
    "        \"cores\": 6\n",
    "    },\n",
    "    \"DSv2\": {\n",
    "        \"size\": \"STANDARD_DS3_V2\",\n",
    "        \"cores\": 4\n",
    "    }\n",
    "}"
   ]
  },
  {
   "cell_type": "markdown",
   "metadata": {},
   "source": [
    "Create our non-gpu DSv2 cluster"
   ]
  },
  {
   "cell_type": "code",
   "execution_count": 7,
   "metadata": {},
   "outputs": [
    {
     "name": "stdout",
     "output_type": "stream",
     "text": [
      "Found existing cluster.\n"
     ]
    }
   ],
   "source": [
    "# CPU compute\n",
    "cpu_cluster_name = \"ffmpeg-cluster\"\n",
    "try:\n",
    "    cpu_cluster = AmlCompute(ws, cpu_cluster_name)\n",
    "    print(\"Found existing cluster.\")\n",
    "except:\n",
    "    print(\"Creating {}\".format(cpu_cluster_name))\n",
    "    provisioning_config = AmlCompute.provisioning_configuration(\n",
    "        vm_size=vm_dict[\"DSv2\"][\"size\"], \n",
    "        min_nodes=ffmpeg_node_count, \n",
    "        max_nodes=ffmpeg_node_count\n",
    "    )\n",
    "\n",
    "    # create the cluster\n",
    "    cpu_cluster = ComputeTarget.create(ws, cpu_cluster_name, provisioning_config)\n",
    "    cpu_cluster.wait_for_completion(show_output=True)\n"
   ]
  },
  {
   "cell_type": "markdown",
   "metadata": {},
   "source": [
    "Create our NCSv2 cluster."
   ]
  },
  {
   "cell_type": "code",
   "execution_count": 8,
   "metadata": {},
   "outputs": [
    {
     "name": "stdout",
     "output_type": "stream",
     "text": [
      "Found existing cluster.\n"
     ]
    }
   ],
   "source": [
    "# GPU compute\n",
    "gpu_cluster_name = \"style-cluster\"\n",
    "try:\n",
    "    gpu_cluster = AmlCompute(ws, gpu_cluster_name)\n",
    "    print(\"Found existing cluster.\")\n",
    "except:\n",
    "    print(\"Creating {}\".format(gpu_cluster_name))\n",
    "    provisioning_config = AmlCompute.provisioning_configuration(\n",
    "        vm_size=vm_dict[\"NCSv2\"][\"size\"], \n",
    "        min_nodes=style_transfer_node_count, \n",
    "        max_nodes=style_transfer_node_count\n",
    "    )\n",
    "\n",
    "    # create the cluster\n",
    "    gpu_cluster = ComputeTarget.create(ws, gpu_cluster_name, provisioning_config)\n",
    "    gpu_cluster.wait_for_completion(show_output=True)"
   ]
  },
  {
   "cell_type": "markdown",
   "metadata": {},
   "source": [
    "### Setup data references"
   ]
  },
  {
   "cell_type": "markdown",
   "metadata": {},
   "source": [
    "Create a datastore based on the storage account we created earlier. We'll use that storage account to hold our input and output data."
   ]
  },
  {
   "cell_type": "code",
   "execution_count": 9,
   "metadata": {
    "tags": [
     "stripout"
    ]
   },
   "outputs": [
    {
     "data": {
      "text/plain": [
       "(True, 'AML_DATASTORE_NAME', 'datastore')"
      ]
     },
     "execution_count": 9,
     "metadata": {},
     "output_type": "execute_result"
    }
   ],
   "source": [
    "my_datastore_name = \"datastore\"\n",
    "set_key(env_path, \"AML_DATASTORE_NAME\", my_datastore_name)"
   ]
  },
  {
   "cell_type": "code",
   "execution_count": 10,
   "metadata": {},
   "outputs": [],
   "source": [
    "# datastore\n",
    "my_datastore = Datastore.register_azure_blob_container(\n",
    "    workspace=ws, \n",
    "    datastore_name=my_datastore_name, \n",
    "    container_name=get_key(env_path, \"STORAGE_CONTAINER_NAME\"), \n",
    "    account_name=get_key(env_path, \"STORAGE_ACCOUNT_NAME\"), \n",
    "    account_key=get_key(env_path, \"STORAGE_ACCOUNT_KEY\"),\n",
    "    overwrite=True\n",
    ")"
   ]
  },
  {
   "cell_type": "markdown",
   "metadata": {},
   "source": [
    "Upload the `models` folder (from out local directory) and the `orangutan.mp4` video to the datastore."
   ]
  },
  {
   "cell_type": "code",
   "execution_count": 11,
   "metadata": {
    "pycharm": {
     "name": "#%%\n"
    }
   },
   "outputs": [
    {
     "name": "stdout",
     "output_type": "stream",
     "text": [
      "--2019-12-05 15:49:43--  https://happypathspublic.blob.core.windows.net/assets/batch_scoring_for_dl/input_video.mp4\n",
      "Resolving happypathspublic.blob.core.windows.net (happypathspublic.blob.core.windows.net)... 52.239.214.164\n",
      "Connecting to happypathspublic.blob.core.windows.net (happypathspublic.blob.core.windows.net)|52.239.214.164|:443... connected.\n",
      "HTTP request sent, awaiting response... 200 OK\n",
      "Length: 7961293 (7.6M) [video/mp4]\n",
      "Saving to: ‘orangutan.mp4’\n",
      "\n",
      "orangutan.mp4       100%[===================>]   7.59M  14.5MB/s    in 0.5s    \n",
      "\n",
      "2019-12-05 15:49:43 (14.5 MB/s) - ‘orangutan.mp4’ saved [7961293/7961293]\n",
      "\n"
     ]
    }
   ],
   "source": [
    "!wget -O orangutan.mp4 https://happypathspublic.blob.core.windows.net/assets/batch_scoring_for_dl/input_video.mp4"
   ]
  },
  {
   "cell_type": "code",
   "execution_count": 12,
   "metadata": {},
   "outputs": [
    {
     "name": "stdout",
     "output_type": "stream",
     "text": [
      "Uploading an estimated of 1 files\n",
      "Uploading ./models/model.pth\n",
      "Uploaded ./models/model.pth, 1 files out of an estimated total of 1\n",
      "Uploaded 1 files\n",
      "Uploading an estimated of 1 files\n",
      "Uploading ./orangutan.mp4\n",
      "Uploaded ./orangutan.mp4, 1 files out of an estimated total of 1\n",
      "Uploaded 1 files\n"
     ]
    },
    {
     "data": {
      "text/plain": [
       "$AZUREML_DATAREFERENCE_datastore"
      ]
     },
     "execution_count": 12,
     "metadata": {},
     "output_type": "execute_result"
    }
   ],
   "source": [
    "# Upload files in models folder to a directory called models\n",
    "my_datastore.upload_files(\n",
    "    [\"./models/model.pth\"],\n",
    "    target_path=\"models\", \n",
    "    overwrite=True\n",
    ")\n",
    "\n",
    "# Upload orangutan.mp4 video\n",
    "my_datastore.upload_files(\n",
    "    [\"./orangutan.mp4\"],\n",
    "    overwrite=True\n",
    ")"
   ]
  },
  {
   "cell_type": "markdown",
   "metadata": {},
   "source": [
    "Set the `models` dir we uploaded as data references to be used by the pipeline steps later on."
   ]
  },
  {
   "cell_type": "code",
   "execution_count": 13,
   "metadata": {},
   "outputs": [],
   "source": [
    "model_dir = DataReference(\n",
    "    data_reference_name=\"model_dir\", \n",
    "    datastore=my_datastore, \n",
    "    path_on_datastore=\"models\", \n",
    "    mode=\"download\"\n",
    ")"
   ]
  },
  {
   "cell_type": "markdown",
   "metadata": {},
   "source": [
    "Set the output video to be saved in the same datastore."
   ]
  },
  {
   "cell_type": "code",
   "execution_count": 14,
   "metadata": {},
   "outputs": [],
   "source": [
    "output_video = PipelineData(name=\"output_video\", datastore=my_datastore)"
   ]
  },
  {
   "cell_type": "markdown",
   "metadata": {},
   "source": [
    "Get a reference to the datastore that was generated when the AML workspace was created. We'll use this datastore to hold temporary pipeline data."
   ]
  },
  {
   "cell_type": "code",
   "execution_count": 15,
   "metadata": {},
   "outputs": [],
   "source": [
    "default_datastore = ws.get_default_datastore()     "
   ]
  },
  {
   "cell_type": "markdown",
   "metadata": {},
   "source": [
    "Save all temporary data files (PipelineData) to the default datastore."
   ]
  },
  {
   "cell_type": "code",
   "execution_count": 16,
   "metadata": {},
   "outputs": [],
   "source": [
    "ffmpeg_audio = PipelineData(name=\"ffmpeg_audio\", datastore=default_datastore)\n",
    "ffmpeg_images = PipelineData(name=\"ffmpeg_images\", datastore=default_datastore)\n",
    "processed_images = PipelineData(name=\"processed_images\", datastore=default_datastore)"
   ]
  },
  {
   "cell_type": "markdown",
   "metadata": {},
   "source": [
    "### Setup cluster environments"
   ]
  },
  {
   "cell_type": "markdown",
   "metadata": {},
   "source": [
    "Config for ffmpeg cluster"
   ]
  },
  {
   "cell_type": "code",
   "execution_count": 19,
   "metadata": {},
   "outputs": [],
   "source": [
    "ffmpeg_cd = CondaDependencies()\n",
    "ffmpeg_cd.add_channel(\"conda-forge\")\n",
    "ffmpeg_cd.add_conda_package(\"ffmpeg\")\n",
    "\n",
    "ffmpeg_run_config = RunConfiguration(conda_dependencies=ffmpeg_cd)\n",
    "ffmpeg_run_config.environment.docker.enabled = True\n",
    "ffmpeg_run_config.environment.docker.base_image = DEFAULT_CPU_IMAGE\n",
    "ffmpeg_run_config.environment.spark.precache_packages = False"
   ]
  },
  {
   "cell_type": "markdown",
   "metadata": {},
   "source": [
    "Config for style transfer cluster"
   ]
  },
  {
   "cell_type": "code",
   "execution_count": 20,
   "metadata": {},
   "outputs": [],
   "source": [
    "style_transfer_cd = CondaDependencies()\n",
    "style_transfer_cd.add_channel(\"pytorch\")\n",
    "style_transfer_cd.add_conda_package(\"pytorch\")\n",
    "\n",
    "style_transfer_run_config = RunConfiguration(conda_dependencies=style_transfer_cd)\n",
    "style_transfer_run_config.environment.docker.enabled = True\n",
    "style_transfer_run_config.environment.docker.base_image = \"pytorch/pytorch\"\n",
    "style_transfer_run_config.environment.spark.precache_packages = False"
   ]
  },
  {
   "cell_type": "markdown",
   "metadata": {},
   "source": [
    "### Set up pipeline steps"
   ]
  },
  {
   "cell_type": "markdown",
   "metadata": {},
   "source": [
    "When setting up the pipelines, we'll need to create a `video_path_param` that can be modified when the pipeline is published."
   ]
  },
  {
   "cell_type": "code",
   "execution_count": 21,
   "metadata": {},
   "outputs": [],
   "source": [
    "video_path_default = DataPath(datastore=my_datastore, path_on_datastore=\"orangutan.mp4\")\n",
    "video_path_param = (PipelineParameter(name=\"video_path\", default_value=video_path_default), DataPathComputeBinding())"
   ]
  },
  {
   "cell_type": "markdown",
   "metadata": {},
   "source": [
    "Create the 3-step pipeline using PythonScriptSteps and the MpiStep. In the MPI step, you'll notice that we use the `style_transfer_mpi.py` script instead of the `style_transfer.py` script. This is because the MPI expects that the script is modified to use MPI code.\n",
    "\n",
    "Both scripts do the exact same thing, except that the `style_transfer_mpi.py` script is set up to use MPI to run process the frames in a distributed way. \n",
    "\n",
    "Feel free to inspect the differences under the `scripts` folder."
   ]
  },
  {
   "cell_type": "code",
   "execution_count": 22,
   "metadata": {},
   "outputs": [
    {
     "name": "stderr",
     "output_type": "stream",
     "text": [
      "WARNING - 'distributed_backend' parameter will be deprecated. Please use 'distributed_training' instead.\n"
     ]
    }
   ],
   "source": [
    "preprocess_video_step = PythonScriptStep(\n",
    "    name=\"preprocess video\",\n",
    "    script_name=\"preprocess_video.py\",\n",
    "    arguments=[\"--input-video\", video_path_param,\n",
    "               \"--output-audio\", ffmpeg_audio,\n",
    "               \"--output-images\", ffmpeg_images,\n",
    "              ],\n",
    "    compute_target=cpu_cluster,\n",
    "    inputs=[video_path_param],\n",
    "    outputs=[ffmpeg_images, ffmpeg_audio],\n",
    "    runconfig=ffmpeg_run_config,\n",
    "    source_directory=project_folder,\n",
    "    allow_reuse=False\n",
    ")\n",
    "\n",
    "distributed_style_transfer_step = MpiStep(\n",
    "    name=\"mpi style transfer\",\n",
    "    script_name=\"style_transfer_mpi.py\",\n",
    "    arguments=[\"--content-dir\", ffmpeg_images,\n",
    "               \"--output-dir\", processed_images,\n",
    "               \"--model-dir\", model_dir,\n",
    "               \"--cuda\", 1\n",
    "              ],\n",
    "    compute_target=gpu_cluster,\n",
    "    node_count=4, \n",
    "    process_count_per_node=1,\n",
    "    inputs=[model_dir, ffmpeg_images],\n",
    "    outputs=[processed_images],\n",
    "    pip_packages=[\"image\", \"mpi4py\", \"torch\", \"torchvision\"],\n",
    "    runconfig=style_transfer_run_config,\n",
    "    use_gpu=True,\n",
    "    source_directory=project_folder,\n",
    "    allow_reuse=False\n",
    ")\n",
    "\n",
    "postprocess_video_step = PythonScriptStep(\n",
    "    name=\"postprocess video\",\n",
    "    script_name=\"postprocess_video.py\",\n",
    "    arguments=[\"--images-dir\", processed_images, \n",
    "               \"--input-audio\", ffmpeg_audio, \n",
    "               \"--output-dir\", output_video],\n",
    "    compute_target=cpu_cluster,\n",
    "    inputs=[processed_images, ffmpeg_audio],\n",
    "    outputs=[output_video],\n",
    "    runconfig=ffmpeg_run_config,\n",
    "    source_directory=project_folder,\n",
    "    allow_reuse=False\n",
    ")"
   ]
  },
  {
   "cell_type": "markdown",
   "metadata": {},
   "source": [
    "### Run the pipeline"
   ]
  },
  {
   "cell_type": "markdown",
   "metadata": {},
   "source": [
    "Run the pipeline, passing in the video path variable."
   ]
  },
  {
   "cell_type": "code",
   "execution_count": 23,
   "metadata": {},
   "outputs": [
    {
     "name": "stderr",
     "output_type": "stream",
     "text": [
      "WARNING - The 'pipeline_params' argument is deprecated. Please use 'pipeline_parameters' instead.\n"
     ]
    },
    {
     "name": "stdout",
     "output_type": "stream",
     "text": [
      "Created step postprocess video [5b1095ed][b63de06d-3e9e-4f7f-bb8b-fd6f9c0e3892], (This step will run and generate new outputs)Created step mpi style transfer [81c81fb1][fac54982-954d-474c-9a3e-98d0956f0e77], (This step will run and generate new outputs)\n",
      "\n",
      "Created step preprocess video [1ce16f06][262a5745-6ee6-4f52-b31c-3c43d22751a7], (This step will run and generate new outputs)\n",
      "Using data reference model_dir for StepId [d4d90692][e9d8c902-6ad2-4eee-a600-7c05c08bfe4c], (Consumers of this data are eligible to reuse prior runs.)\n",
      "Created data reference datastore_f8ff6269 for StepId [bbec8e46][36a8d371-06f8-448b-b69d-ce3f2388674a], (Consumers of this data will generate new runs.)\n",
      "Submitted PipelineRun 38c3f15c-e618-44e8-8f19-cd06ec19998f\n",
      "Link to Azure Machine Learning studio: https://ml.azure.com/experiments/style_transfer_mpi/runs/38c3f15c-e618-44e8-8f19-cd06ec19998f?wsid=/subscriptions/989b90f7-da4f-41f9-84c9-44848802052d/resourcegroups/jiata-bsdlaml-0/workspaces/jiata-bsdlaml-0\n"
     ]
    }
   ],
   "source": [
    "steps = [postprocess_video_step]\n",
    "pipeline = Pipeline(workspace=ws, steps=steps)\n",
    "pipeline_run = Experiment(ws, 'style_transfer_mpi').submit(\n",
    "    pipeline, \n",
    "    pipeline_parameters={'video_path': DataPath(datastore=my_datastore, path_on_datastore=\"orangutan.mp4\")}\n",
    ")"
   ]
  },
  {
   "cell_type": "code",
   "execution_count": 24,
   "metadata": {},
   "outputs": [
    {
     "data": {
      "text/html": [
       "<table style=\"width:100%\"><tr><th>Experiment</th><th>Id</th><th>Type</th><th>Status</th><th>Details Page</th><th>Docs Page</th></tr><tr><td>style_transfer_mpi</td><td>38c3f15c-e618-44e8-8f19-cd06ec19998f</td><td>azureml.PipelineRun</td><td>NotStarted</td><td><a href=\"https://ml.azure.com/experiments/style_transfer_mpi/runs/38c3f15c-e618-44e8-8f19-cd06ec19998f?wsid=/subscriptions/989b90f7-da4f-41f9-84c9-44848802052d/resourcegroups/jiata-bsdlaml-0/workspaces/jiata-bsdlaml-0\" target=\"_blank\" rel=\"noopener\">Link to Azure Machine Learning studio</a></td><td><a href=\"https://docs.microsoft.com/en-us/python/api/overview/azure/ml/intro?view=azure-ml-py\" target=\"_blank\" rel=\"noopener\">Link to Documentation</a></td></tr></table>"
      ],
      "text/plain": [
       "Run(Experiment: style_transfer_mpi,\n",
       "Id: 38c3f15c-e618-44e8-8f19-cd06ec19998f,\n",
       "Type: azureml.PipelineRun,\n",
       "Status: NotStarted)"
      ]
     },
     "execution_count": 24,
     "metadata": {},
     "output_type": "execute_result"
    }
   ],
   "source": [
    "pipeline_run"
   ]
  },
  {
   "cell_type": "markdown",
   "metadata": {},
   "source": [
    "Wait until the pipeline completes before proceeding..."
   ]
  },
  {
   "cell_type": "code",
   "execution_count": 25,
   "metadata": {},
   "outputs": [
    {
     "name": "stdout",
     "output_type": "stream",
     "text": [
      "PipelineRunId: 38c3f15c-e618-44e8-8f19-cd06ec19998f\n",
      "Link to Portal: https://ml.azure.com/experiments/style_transfer_mpi/runs/38c3f15c-e618-44e8-8f19-cd06ec19998f?wsid=/subscriptions/989b90f7-da4f-41f9-84c9-44848802052d/resourcegroups/jiata-bsdlaml-0/workspaces/jiata-bsdlaml-0\n",
      "PipelineRun Status: Running\n",
      "\n",
      "\n",
      "StepRunId: 1d72e487-2529-450a-9ac6-853e4eb10ce3\n",
      "Link to Portal: https://ml.azure.com/experiments/style_transfer_mpi/runs/1d72e487-2529-450a-9ac6-853e4eb10ce3?wsid=/subscriptions/989b90f7-da4f-41f9-84c9-44848802052d/resourcegroups/jiata-bsdlaml-0/workspaces/jiata-bsdlaml-0\n",
      "StepRun( preprocess video ) Status: NotStarted\n",
      "StepRun( preprocess video ) Status: Running\n",
      "\n",
      "Streaming azureml-logs/55_azureml-execution-tvmps_2e7a5e04f6b9a47fce3ffb2d351ff4cd81ca68a0ad9f6fac516909d29f5e81b9_d.txt\n",
      "========================================================================================================================\n",
      "2019-12-05T15:53:45Z Starting output-watcher...\n",
      "Login Succeeded\n",
      "Using default tag: latest\n",
      "latest: Pulling from azureml/azureml_e7c61fe000f77e9812d4681c2e711220\n",
      "Digest: sha256:12c32fb6377897d20dda3ea3297847aa30799dfa51eb4ccef98d0c997337643c\n",
      "Status: Image is up to date for jiatabsdlaml65909f7d.azurecr.io/azureml/azureml_e7c61fe000f77e9812d4681c2e711220:latest\n",
      "0ea711f3c1a5eae1d386430ea3da603421e7cdddf587dbdeb3b0239ad6de608b\n",
      "2019/12/05 15:53:47 Version: 3.0.01059.0002 Branch: master Commit: e8f402a4\n",
      "2019/12/05 15:53:48 sshd runtime has already been installed in the container\n",
      "ssh-keygen: /azureml-envs/azureml_8737fac4d5afd5b6f675b8e82f81f14f/lib/libcrypto.so.1.0.0: no version information available (required by ssh-keygen)\n",
      "ssh-keygen: /azureml-envs/azureml_8737fac4d5afd5b6f675b8e82f81f14f/lib/libcrypto.so.1.0.0: no version information available (required by ssh-keygen)\n",
      "bash: /azureml-envs/azureml_8737fac4d5afd5b6f675b8e82f81f14f/lib/libtinfo.so.5: no version information available (required by bash)\n",
      "bash: /azureml-envs/azureml_8737fac4d5afd5b6f675b8e82f81f14f/lib/libtinfo.so.5: no version information available (required by bash)\n",
      "\n",
      "Streaming azureml-logs/65_job_prep-tvmps_2e7a5e04f6b9a47fce3ffb2d351ff4cd81ca68a0ad9f6fac516909d29f5e81b9_d.txt\n",
      "===============================================================================================================\n",
      "bash: /azureml-envs/azureml_8737fac4d5afd5b6f675b8e82f81f14f/lib/libtinfo.so.5: no version information available (required by bash)\n",
      "Starting job preparation. Current time:2019-12-05T15:53:56.227403\n",
      "Extracting the control code.\n",
      "Creating directory: azureml-logs/\n",
      "Retrieving project from snapshot: 4a914ad8-cb4d-432d-93bb-f8c292764e44\n",
      "Starting the daemon thread to refresh tokens in background for process with pid = 97\n",
      "Starting project file download.\n",
      "Finished project file download.\n",
      "Download from datastores if requested.\n",
      "\n",
      "Streaming azureml-logs/70_driver_log.txt\n",
      "========================================\n",
      "bash: /azureml-envs/azureml_8737fac4d5afd5b6f675b8e82f81f14f/lib/libtinfo.so.5: no version information available (required by bash)\n",
      "bash: /azureml-envs/azureml_8737fac4d5afd5b6f675b8e82f81f14f/lib/libtinfo.so.5: no version information available (required by bash)\n",
      "Starting the daemon thread to refresh tokens in background for process with pid = 152\n",
      "Entering Run History Context Manager.\n",
      "ffmpeg version 4.2 Copyright (c) 2000-2019 the FFmpeg developers\n",
      "  built with gcc 7.3.0 (crosstool-NG 1.23.0.449-a04d0)\n",
      "  configuration: --prefix=/azureml-envs/azureml_8737fac4d5afd5b6f675b8e82f81f14f --cc=/home/conda/feedstock_root/build_artifacts/ffmpeg_1566210161358/_build_env/bin/x86_64-conda_cos6-linux-gnu-cc --disable-doc --disable-openssl --enable-avresample --enable-gnutls --enable-gpl --enable-hardcoded-tables --enable-libfreetype --enable-libopenh264 --enable-libx264 --enable-pic --enable-pthreads --enable-shared --enable-static --enable-version3 --enable-zlib --enable-libmp3lame\n",
      "  libavutil      56. 31.100 / 56. 31.100\n",
      "  libavcodec     58. 54.100 / 58. 54.100\n",
      "  libavformat    58. 29.100 / 58. 29.100\n",
      "  libavdevice    58.  8.100 / 58.  8.100\n",
      "  libavfilter     7. 57.100 /  7. 57.100\n",
      "  libavresample   4.  0.  0 /  4.  0.  0\n",
      "  libswscale      5.  5.100 /  5.  5.100\n",
      "  libswresample   3.  5.100 /  3.  5.100\n",
      "  libpostproc    55.  5.100 / 55.  5.100\n",
      "Input #0, mov,mp4,m4a,3gp,3g2,mj2, from '/mnt/batch/tasks/shared/LS_root/jobs/jiata-bsdlaml-0/azureml/1d72e487-2529-450a-9ac6-853e4eb10ce3/mounts/datastore/orangutan.mp4':\n",
      "  Metadata:\n",
      "    major_brand     : isom\n",
      "    minor_version   : 512\n",
      "    compatible_brands: isomiso2avc1mp41\n",
      "    encoder         : Lavf58.12.100\n",
      "  Duration: 00:00:27.48, start: 0.000000, bitrate: 2317 kb/s\n",
      "    Stream #0:0(und): Video: h264 (High) (avc1 / 0x31637661), yuv420p, 720x720, 2242 kb/s, 30 fps, 30 tbr, 15360 tbn, 60 tbc (default)\n",
      "    Metadata:\n",
      "      handler_name    : VideoHandler\n",
      "    Stream #0:1(eng): Audio: aac (LC) (mp4a / 0x6134706D), 48000 Hz, mono, fltp, 69 kb/s (default)\n",
      "    Metadata:\n",
      "      handler_name    : SoundHandler\n",
      "Stream mapping:\n",
      "  Stream #0:1 -> #0:0 (aac (native) -> aac (native))\n",
      "Press [q] to stop, [?] for help\n",
      "Output #0, adts, to '/mnt/batch/tasks/shared/LS_root/jobs/jiata-bsdlaml-0/azureml/1d72e487-2529-450a-9ac6-853e4eb10ce3/mounts/workspaceblobstore/azureml/1d72e487-2529-450a-9ac6-853e4eb10ce3/ffmpeg_audio/audio.aac':\n",
      "  Metadata:\n",
      "    major_brand     : isom\n",
      "    minor_version   : 512\n",
      "    compatible_brands: isomiso2avc1mp41\n",
      "    encoder         : Lavf58.29.100\n",
      "    Stream #0:0(eng): Audio: aac (LC), 48000 Hz, mono, fltp, 69 kb/s (default)\n",
      "    Metadata:\n",
      "      handler_name    : SoundHandler\n",
      "      encoder         : Lavc58.54.100 aac\n",
      "size=     242kB time=00:00:27.45 bitrate=  72.2kbits/s speed= 122x    \n",
      "video:0kB audio:233kB subtitle:0kB other streams:0kB global headers:0kB muxing overhead: 3.777506%\n",
      "[aac @ 0x5607f4d20040] Qavg: 424.962\n",
      "Input #0, mov,mp4,m4a,3gp,3g2,mj2, from '/mnt/batch/tasks/shared/LS_root/jobs/jiata-bsdlaml-0/azureml/1d72e487-2529-450a-9ac6-853e4eb10ce3/mounts/datastore/orangutan.mp4':\n",
      "  Metadata:\n",
      "    major_brand     : isom\n",
      "    minor_version   : 512\n",
      "    compatible_brands: isomiso2avc1mp41\n",
      "    encoder         : Lavf58.12.100\n",
      "  Duration: 00:00:27.48, start: 0.000000, bitrate: 2317 kb/s\n",
      "    Stream #0:0(und): Video: h264 (High) (avc1 / 0x31637661), yuv420p, 720x720, 2242 kb/s, 30 fps, 30 tbr, 15360 tbn, 60 tbc (default)\n",
      "    Metadata:\n",
      "      handler_name    : VideoHandler\n",
      "    Stream #0:1(eng): Audio: aac (LC) (mp4a / 0x6134706D), 48000 Hz, mono, fltp, 69 kb/s (default)\n",
      "    Metadata:\n",
      "      handler_name    : SoundHandler\n",
      "Stream mapping:\n",
      "  Stream #0:0 -> #0:0 (h264 (native) -> mjpeg (native))\n",
      "Press [q] to stop, [?] for help\n",
      "[swscaler @ 0x55d517489d80] deprecated pixel format used, make sure you did set range correctly\n",
      "Output #0, image2, to '/mnt/batch/tasks/shared/LS_root/jobs/jiata-bsdlaml-0/azureml/1d72e487-2529-450a-9ac6-853e4eb10ce3/mounts/workspaceblobstore/azureml/1d72e487-2529-450a-9ac6-853e4eb10ce3/ffmpeg_images/%05d_video.jpg':\n",
      "  Metadata:\n",
      "    major_brand     : isom\n",
      "    minor_version   : 512\n",
      "    compatible_brands: isomiso2avc1mp41\n",
      "    encoder         : Lavf58.29.100\n",
      "    Stream #0:0(und): Video: mjpeg, yuvj420p(pc), 720x720, q=2-31, 200 kb/s, 30 fps, 30 tbn, 30 tbc (default)\n",
      "    Metadata:\n",
      "      handler_name    : VideoHandler\n",
      "      encoder         : Lavc58.54.100 mjpeg\n",
      "    Side data:\n",
      "      cpb: bitrate max/min/avg: 0/0/200000 buffer size: 0 vbv_delay: -1\n",
      "frame=   20 fps=0.0 q=24.8 size=N/A time=00:00:00.66 bitrate=N/A speed= 1.3x    \n",
      "frame=   40 fps= 39 q=24.8 size=N/A time=00:00:01.33 bitrate=N/A speed=1.31x    \n",
      "frame=   63 fps= 41 q=24.8 size=N/A time=00:00:02.10 bitrate=N/A speed=1.38x    \n",
      "frame=   86 fps= 42 q=24.8 size=N/A time=00:00:02.86 bitrate=N/A speed=1.41x    \n",
      "frame=  109 fps= 43 q=24.8 size=N/A time=00:00:03.63 bitrate=N/A speed=1.43x    \n",
      "frame=  130 fps= 43 q=24.8 size=N/A time=00:00:04.33 bitrate=N/A speed=1.42x    \n",
      "frame=  153 fps= 43 q=24.8 size=N/A time=00:00:05.10 bitrate=N/A speed=1.43x    \n",
      "frame=  175 fps= 43 q=24.8 size=N/A time=00:00:05.83 bitrate=N/A speed=1.43x    \n",
      "frame=  197 fps= 43 q=24.8 size=N/A time=00:00:06.56 bitrate=N/A speed=1.43x    \n",
      "frame=  221 fps= 43 q=24.8 size=N/A time=00:00:07.36 bitrate=N/A speed=1.43x    \n",
      "frame=  243 fps= 43 q=24.8 size=N/A time=00:00:08.10 bitrate=N/A speed=1.43x    \n",
      "frame=  265 fps= 43 q=24.8 size=N/A time=00:00:08.83 bitrate=N/A speed=1.43x    \n",
      "frame=  286 fps= 43 q=24.8 size=N/A time=00:00:09.53 bitrate=N/A speed=1.43x    \n",
      "frame=  308 fps= 43 q=24.8 size=N/A time=00:00:10.26 bitrate=N/A speed=1.43x    \n",
      "frame=  331 fps= 43 q=24.8 size=N/A time=00:00:11.03 bitrate=N/A speed=1.43x    \n"
     ]
    },
    {
     "name": "stdout",
     "output_type": "stream",
     "text": [
      "frame=  353 fps= 43 q=24.8 size=N/A time=00:00:11.76 bitrate=N/A speed=1.43x    \n",
      "frame=  374 fps= 43 q=24.8 size=N/A time=00:00:12.46 bitrate=N/A speed=1.43x    \n",
      "frame=  395 fps= 43 q=24.8 size=N/A time=00:00:13.16 bitrate=N/A speed=1.43x    \n",
      "frame=  418 fps= 43 q=24.8 size=N/A time=00:00:13.93 bitrate=N/A speed=1.43x    \n",
      "frame=  441 fps= 43 q=24.8 size=N/A time=00:00:14.70 bitrate=N/A speed=1.44x    \n",
      "frame=  463 fps= 43 q=24.8 size=N/A time=00:00:15.43 bitrate=N/A speed=1.44x    \n",
      "frame=  485 fps= 43 q=24.8 size=N/A time=00:00:16.16 bitrate=N/A speed=1.44x    \n",
      "frame=  508 fps= 43 q=24.8 size=N/A time=00:00:16.93 bitrate=N/A speed=1.44x    \n",
      "frame=  530 fps= 43 q=24.8 size=N/A time=00:00:17.66 bitrate=N/A speed=1.44x    \n",
      "frame=  553 fps= 43 q=24.8 size=N/A time=00:00:18.43 bitrate=N/A speed=1.44x    \n",
      "frame=  574 fps= 43 q=24.8 size=N/A time=00:00:19.13 bitrate=N/A speed=1.44x    \n",
      "frame=  596 fps= 43 q=24.8 size=N/A time=00:00:19.86 bitrate=N/A speed=1.44x    \n",
      "frame=  618 fps= 43 q=24.8 size=N/A time=00:00:20.60 bitrate=N/A speed=1.44x    \n",
      "frame=  641 fps= 43 q=24.8 size=N/A time=00:00:21.36 bitrate=N/A speed=1.44x    \n",
      "frame=  663 fps= 43 q=24.8 size=N/A time=00:00:22.10 bitrate=N/A speed=1.44x    \n",
      "frame=  686 fps= 43 q=24.8 size=N/A time=00:00:22.86 bitrate=N/A speed=1.44x    \n",
      "frame=  709 fps= 43 q=24.8 size=N/A time=00:00:23.63 bitrate=N/A speed=1.44x    \n",
      "frame=  731 fps= 43 q=24.8 size=N/A time=00:00:24.36 bitrate=N/A speed=1.44x    \n",
      "\n",
      "Streaming azureml-logs/75_job_post-tvmps_2e7a5e04f6b9a47fce3ffb2d351ff4cd81ca68a0ad9f6fac516909d29f5e81b9_d.txt\n",
      "===============================================================================================================\n",
      "bash: /azureml-envs/azureml_8737fac4d5afd5b6f675b8e82f81f14f/lib/libtinfo.so.5: no version information available (required by bash)\n",
      "Starting job release. Current time:2019-12-05T15:54:31.013827\n",
      "Logging experiment finalizing status in history service.\n",
      "Starting the daemon thread to refresh tokens in background for process with pid = 197\n",
      "Job release is complete. Current time:2019-12-05T15:54:36.933089\n",
      "\n",
      "StepRun(preprocess video) Execution Summary\n",
      "============================================\n",
      "StepRun( preprocess video ) Status: Finished\n",
      "{'runId': '1d72e487-2529-450a-9ac6-853e4eb10ce3', 'target': 'ffmpeg-cluster', 'status': 'Completed', 'startTimeUtc': '2019-12-05T15:53:43.64647Z', 'endTimeUtc': '2019-12-05T15:54:49.464686Z', 'properties': {'azureml.runsource': 'azureml.StepRun', 'ContentSnapshotId': '4a914ad8-cb4d-432d-93bb-f8c292764e44', 'StepType': 'PythonScriptStep', 'ComputeTargetType': 'AmlCompute', 'azureml.pipelinerunid': '38c3f15c-e618-44e8-8f19-cd06ec19998f', '_azureml.ComputeTargetType': 'batchai', 'AzureML.DerivedImageName': 'azureml/azureml_e7c61fe000f77e9812d4681c2e711220', 'ProcessInfoFile': 'azureml-logs/process_info.json', 'ProcessStatusFile': 'azureml-logs/process_status.json'}, 'inputDatasets': [], 'runDefinition': {'script': 'preprocess_video.py', 'arguments': ['--input-video', '$AZUREML_DATAREFERENCE_datastore_f8ff6269', '--output-audio', '$AZUREML_DATAREFERENCE_ffmpeg_audio', '--output-images', '$AZUREML_DATAREFERENCE_ffmpeg_images'], 'sourceDirectoryDataStore': None, 'framework': 'Python', 'communicator': 'None', 'target': 'ffmpeg-cluster', 'dataReferences': {'datastore_f8ff6269': {'dataStoreName': 'datastore', 'mode': 'Mount', 'pathOnDataStore': 'orangutan.mp4', 'pathOnCompute': None, 'overwrite': False}, 'ffmpeg_images': {'dataStoreName': 'workspaceblobstore', 'mode': 'Mount', 'pathOnDataStore': 'azureml/1d72e487-2529-450a-9ac6-853e4eb10ce3/ffmpeg_images', 'pathOnCompute': None, 'overwrite': False}, 'ffmpeg_audio': {'dataStoreName': 'workspaceblobstore', 'mode': 'Mount', 'pathOnDataStore': 'azureml/1d72e487-2529-450a-9ac6-853e4eb10ce3/ffmpeg_audio', 'pathOnCompute': None, 'overwrite': False}}, 'data': {}, 'jobName': None, 'maxRunDurationSeconds': None, 'nodeCount': 1, 'environment': {'name': 'Experiment style_transfer_mpi Environment', 'version': 'Autosave_2019-12-04T20:58:56Z_a6b60193', 'python': {'interpreterPath': 'python', 'userManagedDependencies': False, 'condaDependencies': {'channels': ['conda-forge'], 'dependencies': ['python=3.6.2', {'pip': ['azureml-defaults']}, 'ffmpeg'], 'name': 'azureml_8737fac4d5afd5b6f675b8e82f81f14f'}, 'baseCondaEnvironment': None}, 'environmentVariables': {'EXAMPLE_ENV_VAR': 'EXAMPLE_VALUE'}, 'docker': {'baseImage': 'mcr.microsoft.com/azureml/base:intelmpi2018.3-ubuntu16.04', 'baseDockerfile': None, 'baseImageRegistry': {'address': None, 'username': None, 'password': None}, 'enabled': True, 'shmSize': '1g'}, 'spark': {'repositories': ['[]'], 'packages': [], 'precachePackages': False}, 'inferencingStackVersion': None}, 'history': {'outputCollection': True, 'directoriesToWatch': ['logs']}, 'spark': {'configuration': {'spark.app.name': 'Azure ML Experiment', 'spark.yarn.maxAppAttempts': '1'}}, 'amlCompute': {'name': None, 'vmSize': None, 'retainCluster': False, 'clusterMaxNodeCount': 1}, 'tensorflow': {'workerCount': 1, 'parameterServerCount': 1}, 'mpi': {'processCountPerNode': 1}, 'hdi': {'yarnDeployMode': 'Cluster'}, 'containerInstance': {'region': None, 'cpuCores': 2, 'memoryGb': 3.5}, 'exposedPorts': None, 'docker': {'useDocker': True, 'sharedVolumes': True, 'shmSize': '1g', 'arguments': []}}, 'logFiles': {'azureml-logs/55_azureml-execution-tvmps_2e7a5e04f6b9a47fce3ffb2d351ff4cd81ca68a0ad9f6fac516909d29f5e81b9_d.txt': 'https://jiatabsdstorage624362c64.blob.core.windows.net/azureml/ExperimentRun/dcid.1d72e487-2529-450a-9ac6-853e4eb10ce3/azureml-logs/55_azureml-execution-tvmps_2e7a5e04f6b9a47fce3ffb2d351ff4cd81ca68a0ad9f6fac516909d29f5e81b9_d.txt?sv=2019-02-02&sr=b&sig=iHwnoHPt4VkWPb7I65lHIKWdfrRyNY%2FSISo3UGqWq7o%3D&st=2019-12-05T15%3A45%3A10Z&se=2019-12-05T23%3A55%3A10Z&sp=r', 'azureml-logs/65_job_prep-tvmps_2e7a5e04f6b9a47fce3ffb2d351ff4cd81ca68a0ad9f6fac516909d29f5e81b9_d.txt': 'https://jiatabsdstorage624362c64.blob.core.windows.net/azureml/ExperimentRun/dcid.1d72e487-2529-450a-9ac6-853e4eb10ce3/azureml-logs/65_job_prep-tvmps_2e7a5e04f6b9a47fce3ffb2d351ff4cd81ca68a0ad9f6fac516909d29f5e81b9_d.txt?sv=2019-02-02&sr=b&sig=0Hhp6E%2FtqkCwQkwd3PFUqt73nI0oiNEmzZP%2FG9wFfyk%3D&st=2019-12-05T15%3A45%3A10Z&se=2019-12-05T23%3A55%3A10Z&sp=r', 'azureml-logs/70_driver_log.txt': 'https://jiatabsdstorage624362c64.blob.core.windows.net/azureml/ExperimentRun/dcid.1d72e487-2529-450a-9ac6-853e4eb10ce3/azureml-logs/70_driver_log.txt?sv=2019-02-02&sr=b&sig=Z6pLFdyeR4FcB7nLIKhG6LYvHuY3QPFx0prKCE5sC%2FI%3D&st=2019-12-05T15%3A45%3A10Z&se=2019-12-05T23%3A55%3A10Z&sp=r', 'azureml-logs/75_job_post-tvmps_2e7a5e04f6b9a47fce3ffb2d351ff4cd81ca68a0ad9f6fac516909d29f5e81b9_d.txt': 'https://jiatabsdstorage624362c64.blob.core.windows.net/azureml/ExperimentRun/dcid.1d72e487-2529-450a-9ac6-853e4eb10ce3/azureml-logs/75_job_post-tvmps_2e7a5e04f6b9a47fce3ffb2d351ff4cd81ca68a0ad9f6fac516909d29f5e81b9_d.txt?sv=2019-02-02&sr=b&sig=N6Y%2FuTTMDxfZVXOloSW%2FBDY3nbDb%2F9532DFwjlYwU5Q%3D&st=2019-12-05T15%3A45%3A10Z&se=2019-12-05T23%3A55%3A10Z&sp=r', 'azureml-logs/process_info.json': 'https://jiatabsdstorage624362c64.blob.core.windows.net/azureml/ExperimentRun/dcid.1d72e487-2529-450a-9ac6-853e4eb10ce3/azureml-logs/process_info.json?sv=2019-02-02&sr=b&sig=EabdMGlO5RSX8ruJtPvuAC%2BfboPfuhCq3EeDvFejTrM%3D&st=2019-12-05T15%3A45%3A10Z&se=2019-12-05T23%3A55%3A10Z&sp=r', 'azureml-logs/process_status.json': 'https://jiatabsdstorage624362c64.blob.core.windows.net/azureml/ExperimentRun/dcid.1d72e487-2529-450a-9ac6-853e4eb10ce3/azureml-logs/process_status.json?sv=2019-02-02&sr=b&sig=90adRb%2BVFvAIlm0VncSrRfZNdZFxXxnUj%2F1iNkuwx74%3D&st=2019-12-05T15%3A45%3A10Z&se=2019-12-05T23%3A55%3A10Z&sp=r', 'logs/azureml/152_azureml.log': 'https://jiatabsdstorage624362c64.blob.core.windows.net/azureml/ExperimentRun/dcid.1d72e487-2529-450a-9ac6-853e4eb10ce3/logs/azureml/152_azureml.log?sv=2019-02-02&sr=b&sig=ZrPmmBjnX39RQXC6vUzY6bN9spTpbP57H5%2FCVekvexk%3D&st=2019-12-05T15%3A45%3A10Z&se=2019-12-05T23%3A55%3A10Z&sp=r', 'logs/azureml/azureml.log': 'https://jiatabsdstorage624362c64.blob.core.windows.net/azureml/ExperimentRun/dcid.1d72e487-2529-450a-9ac6-853e4eb10ce3/logs/azureml/azureml.log?sv=2019-02-02&sr=b&sig=6IWD8uy9dzJYL7hkW7eLtLjB2kw5rXzt%2B6wUpBiVi4g%3D&st=2019-12-05T15%3A45%3A12Z&se=2019-12-05T23%3A55%3A12Z&sp=r', 'logs/azureml/executionlogs.txt': 'https://jiatabsdstorage624362c64.blob.core.windows.net/azureml/ExperimentRun/dcid.1d72e487-2529-450a-9ac6-853e4eb10ce3/logs/azureml/executionlogs.txt?sv=2019-02-02&sr=b&sig=MZzAMHzy%2B3%2BtF%2FZGFU%2FJOxG%2B4eNJxmylbQcMjjdx%2FXo%3D&st=2019-12-05T15%3A45%3A12Z&se=2019-12-05T23%3A55%3A12Z&sp=r', 'logs/azureml/stderrlogs.txt': 'https://jiatabsdstorage624362c64.blob.core.windows.net/azureml/ExperimentRun/dcid.1d72e487-2529-450a-9ac6-853e4eb10ce3/logs/azureml/stderrlogs.txt?sv=2019-02-02&sr=b&sig=MxyzoqstdvK7jmM2jx6z2knz98bmyUHFuvxXuwnG4So%3D&st=2019-12-05T15%3A45%3A12Z&se=2019-12-05T23%3A55%3A12Z&sp=r', 'logs/azureml/stdoutlogs.txt': 'https://jiatabsdstorage624362c64.blob.core.windows.net/azureml/ExperimentRun/dcid.1d72e487-2529-450a-9ac6-853e4eb10ce3/logs/azureml/stdoutlogs.txt?sv=2019-02-02&sr=b&sig=1mk8kuzXUw9HXvxUKt1Zyi0qi2d95Cv%2BZg9blxYNz6w%3D&st=2019-12-05T15%3A45%3A12Z&se=2019-12-05T23%3A55%3A12Z&sp=r'}}\n",
      "\n"
     ]
    },
    {
     "name": "stdout",
     "output_type": "stream",
     "text": [
      "\n",
      "\n",
      "\n",
      "StepRunId: dc7bacaa-87e9-44d6-9627-8b60a7d87ee5\n",
      "Link to Portal: https://ml.azure.com/experiments/style_transfer_mpi/runs/dc7bacaa-87e9-44d6-9627-8b60a7d87ee5?wsid=/subscriptions/989b90f7-da4f-41f9-84c9-44848802052d/resourcegroups/jiata-bsdlaml-0/workspaces/jiata-bsdlaml-0\n",
      "StepRun( mpi style transfer ) Status: NotStarted\n",
      "StepRun( mpi style transfer ) Status: Queued\n",
      "StepRun( mpi style transfer ) Status: Running\n",
      "\n",
      "Streaming azureml-logs/55_azureml-execution-tvmps_40e2d4c4eaec4d9a0d1e6db7a0d07cabc36aaadc033e33b90618b526745b9fd6_d.txt\n",
      "========================================================================================================================\n",
      "2019-12-05T15:56:18Z Starting output-watcher...\n",
      "Login Succeeded\n",
      "Using default tag: latest\n",
      "latest: Pulling from azureml/azureml_ddda1ac8b76b965a070517439825a791\n",
      "Digest: sha256:7d2d5977ae34b328339a39e647ea0f66b6ffddba343daaf2e238e4e261cd99c1\n",
      "Status: Image is up to date for jiatabsdlaml65909f7d.azurecr.io/azureml/azureml_ddda1ac8b76b965a070517439825a791:latest\n",
      "aa7402a306f28ec5a72ee285573b9cd3b1b6b0545231fdf37fc1731049a73494\n",
      "2019/12/05 15:56:20 Version: 3.0.01059.0002 Branch: master Commit: e8f402a4\n",
      "2019/12/05 15:56:20 sshd runtime has already been installed in the container\n",
      "ssh-keygen: /azureml-envs/azureml_a5158d7388d68123ba88a8bb38f50057/lib/libcrypto.so.1.0.0: no version information available (required by ssh-keygen)\n",
      "ssh-keygen: /azureml-envs/azureml_a5158d7388d68123ba88a8bb38f50057/lib/libcrypto.so.1.0.0: no version information available (required by ssh-keygen)\n",
      "bash: /azureml-envs/azureml_a5158d7388d68123ba88a8bb38f50057/lib/libtinfo.so.5: no version information available (required by bash)\n",
      "bash: /azureml-envs/azureml_a5158d7388d68123ba88a8bb38f50057/lib/libtinfo.so.5: no version information available (required by bash)\n",
      "\n",
      "Streaming azureml-logs/65_job_prep-tvmps_40e2d4c4eaec4d9a0d1e6db7a0d07cabc36aaadc033e33b90618b526745b9fd6_d.txt\n",
      "===============================================================================================================\n",
      "bash: /azureml-envs/azureml_a5158d7388d68123ba88a8bb38f50057/lib/libtinfo.so.5: no version information available (required by bash)\n",
      "Not a master node. Exiting.\n",
      "\n",
      "Streaming azureml-logs/70_mpi_log.txt\n",
      "=====================================\n",
      "bash: /azureml-envs/azureml_a5158d7388d68123ba88a8bb38f50057/lib/libtinfo.so.5: no version information available (required by bash)\n",
      "\n",
      "Streaming azureml-logs/70_driver_log_0.txt\n",
      "==========================================\n",
      "bash: /azureml-envs/azureml_a5158d7388d68123ba88a8bb38f50057/lib/libtinfo.so.5: no version information available (required by bash)\n",
      "This is an MPI job. Rank:0\n",
      "Starting the daemon thread to refresh tokens in background for process with pid = 201\n",
      "Entering Run History Context Manager.\n",
      "RANK 0 - is processing 205 images out of the total 823\n",
      "RANK 0 - number of pre-aggregated output files 205\n",
      "RANK 0 - number of aggregated output files 4\n",
      "RANK 0 - end\n",
      "\n",
      "\n",
      "The experiment completed successfully. Finalizing run...\n",
      "Cleaning up all outstanding Run operations, waiting 300.0 seconds\n",
      "1 items cleaning up...\n",
      "Cleanup took 0.0011470317840576172 seconds\n",
      "\n",
      "Streaming azureml-logs/75_job_post-tvmps_40e2d4c4eaec4d9a0d1e6db7a0d07cabc36aaadc033e33b90618b526745b9fd6_d.txt\n",
      "===============================================================================================================\n",
      "bash: /azureml-envs/azureml_a5158d7388d68123ba88a8bb38f50057/lib/libtinfo.so.5: no version information available (required by bash)\n",
      "\n",
      "StepRun(mpi style transfer) Execution Summary\n",
      "==============================================\n",
      "StepRun( mpi style transfer ) Status: Finished\n",
      "{'runId': 'dc7bacaa-87e9-44d6-9627-8b60a7d87ee5', 'target': 'style-cluster', 'status': 'Completed', 'startTimeUtc': '2019-12-05T15:56:26.402582Z', 'endTimeUtc': '2019-12-05T15:58:25.801251Z', 'properties': {'azureml.runsource': 'azureml.StepRun', 'ContentSnapshotId': '4a914ad8-cb4d-432d-93bb-f8c292764e44', 'StepType': 'PythonScriptStep', 'ComputeTargetType': 'AmlCompute', 'azureml.pipelinerunid': '38c3f15c-e618-44e8-8f19-cd06ec19998f', '_azureml.ComputeTargetType': 'batchai', 'AzureML.DerivedImageName': 'azureml/azureml_ddda1ac8b76b965a070517439825a791', 'ProcessInfoFile': 'azureml-logs/process_info.json', 'ProcessStatusFile': 'azureml-logs/process_status.json'}, 'inputDatasets': [], 'runDefinition': {'script': 'style_transfer_mpi.py', 'arguments': ['--content-dir', '$AZUREML_DATAREFERENCE_ffmpeg_images', '--output-dir', '$AZUREML_DATAREFERENCE_processed_images', '--model-dir', '$AZUREML_DATAREFERENCE_model_dir', '--cuda', '1'], 'sourceDirectoryDataStore': None, 'framework': 'Python', 'communicator': 'Mpi', 'target': 'style-cluster', 'dataReferences': {'model_dir': {'dataStoreName': 'datastore', 'mode': 'Download', 'pathOnDataStore': 'models', 'pathOnCompute': None, 'overwrite': False}, 'ffmpeg_images': {'dataStoreName': 'workspaceblobstore', 'mode': 'Mount', 'pathOnDataStore': 'azureml/1d72e487-2529-450a-9ac6-853e4eb10ce3/ffmpeg_images', 'pathOnCompute': None, 'overwrite': False}, 'processed_images': {'dataStoreName': 'workspaceblobstore', 'mode': 'Mount', 'pathOnDataStore': 'azureml/dc7bacaa-87e9-44d6-9627-8b60a7d87ee5/processed_images', 'pathOnCompute': None, 'overwrite': False}}, 'data': {}, 'jobName': None, 'maxRunDurationSeconds': None, 'nodeCount': 4, 'environment': {'name': 'Experiment style_transfer_mpi Environment', 'version': 'Autosave_2019-12-04T22:14:25Z_386a557a', 'python': {'interpreterPath': 'python', 'userManagedDependencies': False, 'condaDependencies': {'channels': ['conda-forge'], 'dependencies': ['python=3.6.2', {'pip': ['azureml-defaults', 'image', 'mpi4py', 'torch', 'torchvision']}], 'name': 'azureml_a5158d7388d68123ba88a8bb38f50057'}, 'baseCondaEnvironment': None}, 'environmentVariables': {'EXAMPLE_ENV_VAR': 'EXAMPLE_VALUE'}, 'docker': {'baseImage': 'mcr.microsoft.com/azureml/base-gpu:intelmpi2018.3-cuda10.0-cudnn7-ubuntu16.04', 'baseDockerfile': None, 'baseImageRegistry': {'address': None, 'username': None, 'password': None}, 'enabled': True, 'shmSize': '1g'}, 'spark': {'repositories': ['[]'], 'packages': [], 'precachePackages': False}, 'inferencingStackVersion': None}, 'history': {'outputCollection': True, 'directoriesToWatch': ['logs']}, 'spark': {'configuration': {'spark.app.name': 'Azure ML Experiment', 'spark.yarn.maxAppAttempts': '1'}}, 'amlCompute': {'name': None, 'vmSize': None, 'retainCluster': False, 'clusterMaxNodeCount': 4}, 'tensorflow': {'workerCount': 1, 'parameterServerCount': 1}, 'mpi': {'processCountPerNode': 1}, 'hdi': {'yarnDeployMode': 'Cluster'}, 'containerInstance': {'region': None, 'cpuCores': 2, 'memoryGb': 3.5}, 'exposedPorts': None, 'docker': {'useDocker': True, 'sharedVolumes': True, 'shmSize': '1g', 'arguments': []}}, 'logFiles': {'azureml-logs/55_azureml-execution-tvmps_40e2d4c4eaec4d9a0d1e6db7a0d07cabc36aaadc033e33b90618b526745b9fd6_d.txt': 'https://jiatabsdstorage624362c64.blob.core.windows.net/azureml/ExperimentRun/dcid.dc7bacaa-87e9-44d6-9627-8b60a7d87ee5/azureml-logs/55_azureml-execution-tvmps_40e2d4c4eaec4d9a0d1e6db7a0d07cabc36aaadc033e33b90618b526745b9fd6_d.txt?sv=2019-02-02&sr=b&sig=ogDDo%2FZtgyMoAAuhbMxblZXo3NOAQqBbOkrNVCn%2BK0w%3D&st=2019-12-05T15%3A49%3A00Z&se=2019-12-05T23%3A59%3A00Z&sp=r', 'azureml-logs/55_azureml-execution-tvmps_b3063182f16a855d9bf58ec871d6b7898ba8062b21e542ec56abe1dc2b689681_d.txt': 'https://jiatabsdstorage624362c64.blob.core.windows.net/azureml/ExperimentRun/dcid.dc7bacaa-87e9-44d6-9627-8b60a7d87ee5/azureml-logs/55_azureml-execution-tvmps_b3063182f16a855d9bf58ec871d6b7898ba8062b21e542ec56abe1dc2b689681_d.txt?sv=2019-02-02&sr=b&sig=v6JUQKSYoRAwtfdvR0ss7khpY6QMmMnKqhkk2gAlxmw%3D&st=2019-12-05T15%3A49%3A00Z&se=2019-12-05T23%3A59%3A00Z&sp=r', 'azureml-logs/55_azureml-execution-tvmps_ce333ae60b7b4f92afa654ed5972d7a03e5e81edfdff0df0597f184fc22c4f5b_d.txt': 'https://jiatabsdstorage624362c64.blob.core.windows.net/azureml/ExperimentRun/dcid.dc7bacaa-87e9-44d6-9627-8b60a7d87ee5/azureml-logs/55_azureml-execution-tvmps_ce333ae60b7b4f92afa654ed5972d7a03e5e81edfdff0df0597f184fc22c4f5b_d.txt?sv=2019-02-02&sr=b&sig=k38UdP6cfL6SkAI78kzkbhWFcS7JKVQwNqvqoEiPeV8%3D&st=2019-12-05T15%3A49%3A00Z&se=2019-12-05T23%3A59%3A00Z&sp=r', 'azureml-logs/55_azureml-execution-tvmps_dd3fb09298a257b5b86017a1e830f3364bb5d2e5aa492bbbab88f294de476c35_d.txt': 'https://jiatabsdstorage624362c64.blob.core.windows.net/azureml/ExperimentRun/dcid.dc7bacaa-87e9-44d6-9627-8b60a7d87ee5/azureml-logs/55_azureml-execution-tvmps_dd3fb09298a257b5b86017a1e830f3364bb5d2e5aa492bbbab88f294de476c35_d.txt?sv=2019-02-02&sr=b&sig=5hjAcvSEP0V7Z21nfo2gAEE3laCgp5BZvoXrzi3x7y0%3D&st=2019-12-05T15%3A49%3A00Z&se=2019-12-05T23%3A59%3A00Z&sp=r', 'azureml-logs/65_job_prep-tvmps_40e2d4c4eaec4d9a0d1e6db7a0d07cabc36aaadc033e33b90618b526745b9fd6_d.txt': 'https://jiatabsdstorage624362c64.blob.core.windows.net/azureml/ExperimentRun/dcid.dc7bacaa-87e9-44d6-9627-8b60a7d87ee5/azureml-logs/65_job_prep-tvmps_40e2d4c4eaec4d9a0d1e6db7a0d07cabc36aaadc033e33b90618b526745b9fd6_d.txt?sv=2019-02-02&sr=b&sig=GgKnJ4tHEqeD75rpkKg%2BiMeCPgjNzO8%2FIxZgn8oT4Hg%3D&st=2019-12-05T15%3A49%3A00Z&se=2019-12-05T23%3A59%3A00Z&sp=r', 'azureml-logs/65_job_prep-tvmps_b3063182f16a855d9bf58ec871d6b7898ba8062b21e542ec56abe1dc2b689681_d.txt': 'https://jiatabsdstorage624362c64.blob.core.windows.net/azureml/ExperimentRun/dcid.dc7bacaa-87e9-44d6-9627-8b60a7d87ee5/azureml-logs/65_job_prep-tvmps_b3063182f16a855d9bf58ec871d6b7898ba8062b21e542ec56abe1dc2b689681_d.txt?sv=2019-02-02&sr=b&sig=lADq6prLRcxokW2EYoFh5GvJ2x9CkP84meRv7zfGm9c%3D&st=2019-12-05T15%3A49%3A00Z&se=2019-12-05T23%3A59%3A00Z&sp=r', 'azureml-logs/65_job_prep-tvmps_ce333ae60b7b4f92afa654ed5972d7a03e5e81edfdff0df0597f184fc22c4f5b_d.txt': 'https://jiatabsdstorage624362c64.blob.core.windows.net/azureml/ExperimentRun/dcid.dc7bacaa-87e9-44d6-9627-8b60a7d87ee5/azureml-logs/65_job_prep-tvmps_ce333ae60b7b4f92afa654ed5972d7a03e5e81edfdff0df0597f184fc22c4f5b_d.txt?sv=2019-02-02&sr=b&sig=Bdrs1Uo3apQPAPV7VS2RlaD6mwuk14cXO1pHKaNC8r0%3D&st=2019-12-05T15%3A49%3A00Z&se=2019-12-05T23%3A59%3A00Z&sp=r', 'azureml-logs/65_job_prep-tvmps_dd3fb09298a257b5b86017a1e830f3364bb5d2e5aa492bbbab88f294de476c35_d.txt': 'https://jiatabsdstorage624362c64.blob.core.windows.net/azureml/ExperimentRun/dcid.dc7bacaa-87e9-44d6-9627-8b60a7d87ee5/azureml-logs/65_job_prep-tvmps_dd3fb09298a257b5b86017a1e830f3364bb5d2e5aa492bbbab88f294de476c35_d.txt?sv=2019-02-02&sr=b&sig=M6fj%2FeWLjOr8mp3ein5shunGHxmnurfkQX2pleIUfJE%3D&st=2019-12-05T15%3A49%3A00Z&se=2019-12-05T23%3A59%3A00Z&sp=r', 'azureml-logs/70_driver_log_0.txt': 'https://jiatabsdstorage624362c64.blob.core.windows.net/azureml/ExperimentRun/dcid.dc7bacaa-87e9-44d6-9627-8b60a7d87ee5/azureml-logs/70_driver_log_0.txt?sv=2019-02-02&sr=b&sig=8UTEs5aldfngjhZuS1%2FGS5SKD0Q0s57Ar939Qk%2BBGkc%3D&st=2019-12-05T15%3A49%3A00Z&se=2019-12-05T23%3A59%3A00Z&sp=r', 'azureml-logs/70_driver_log_1.txt': 'https://jiatabsdstorage624362c64.blob.core.windows.net/azureml/ExperimentRun/dcid.dc7bacaa-87e9-44d6-9627-8b60a7d87ee5/azureml-logs/70_driver_log_1.txt?sv=2019-02-02&sr=b&sig=flK6%2FdKsOLcScaDt2cCTAsiOOCbfPCiUYWyhuafexmU%3D&st=2019-12-05T15%3A49%3A00Z&se=2019-12-05T23%3A59%3A00Z&sp=r', 'azureml-logs/70_driver_log_2.txt': 'https://jiatabsdstorage624362c64.blob.core.windows.net/azureml/ExperimentRun/dcid.dc7bacaa-87e9-44d6-9627-8b60a7d87ee5/azureml-logs/70_driver_log_2.txt?sv=2019-02-02&sr=b&sig=y4%2FXf1wHqw4%2BOr2HN0NoBQS8KbuWq0KwnviAewzk6zo%3D&st=2019-12-05T15%3A49%3A00Z&se=2019-12-05T23%3A59%3A00Z&sp=r', 'azureml-logs/70_driver_log_3.txt': 'https://jiatabsdstorage624362c64.blob.core.windows.net/azureml/ExperimentRun/dcid.dc7bacaa-87e9-44d6-9627-8b60a7d87ee5/azureml-logs/70_driver_log_3.txt?sv=2019-02-02&sr=b&sig=HGgXNiCSC3GD3GGVc8MKBa4U0XwegaiHPOS5y2WXJJw%3D&st=2019-12-05T15%3A49%3A00Z&se=2019-12-05T23%3A59%3A00Z&sp=r', 'azureml-logs/70_mpi_log.txt': 'https://jiatabsdstorage624362c64.blob.core.windows.net/azureml/ExperimentRun/dcid.dc7bacaa-87e9-44d6-9627-8b60a7d87ee5/azureml-logs/70_mpi_log.txt?sv=2019-02-02&sr=b&sig=PAXPB4F8qkuHto5j5T0Ih0zRJxzMMiW2fLDwsU%2FAR3w%3D&st=2019-12-05T15%3A49%3A00Z&se=2019-12-05T23%3A59%3A00Z&sp=r', 'azureml-logs/75_job_post-tvmps_40e2d4c4eaec4d9a0d1e6db7a0d07cabc36aaadc033e33b90618b526745b9fd6_d.txt': 'https://jiatabsdstorage624362c64.blob.core.windows.net/azureml/ExperimentRun/dcid.dc7bacaa-87e9-44d6-9627-8b60a7d87ee5/azureml-logs/75_job_post-tvmps_40e2d4c4eaec4d9a0d1e6db7a0d07cabc36aaadc033e33b90618b526745b9fd6_d.txt?sv=2019-02-02&sr=b&sig=LiI4tgcmyv0qJPrHlAQ37aBzfnHW7vS7NEKCorY7n58%3D&st=2019-12-05T15%3A49%3A00Z&se=2019-12-05T23%3A59%3A00Z&sp=r', 'azureml-logs/75_job_post-tvmps_b3063182f16a855d9bf58ec871d6b7898ba8062b21e542ec56abe1dc2b689681_d.txt': 'https://jiatabsdstorage624362c64.blob.core.windows.net/azureml/ExperimentRun/dcid.dc7bacaa-87e9-44d6-9627-8b60a7d87ee5/azureml-logs/75_job_post-tvmps_b3063182f16a855d9bf58ec871d6b7898ba8062b21e542ec56abe1dc2b689681_d.txt?sv=2019-02-02&sr=b&sig=1jayMrYiNRpO9Mft%2BHlpCpvKy2Tki7BZzaTE1bT9cI8%3D&st=2019-12-05T15%3A49%3A00Z&se=2019-12-05T23%3A59%3A00Z&sp=r', 'azureml-logs/75_job_post-tvmps_ce333ae60b7b4f92afa654ed5972d7a03e5e81edfdff0df0597f184fc22c4f5b_d.txt': 'https://jiatabsdstorage624362c64.blob.core.windows.net/azureml/ExperimentRun/dcid.dc7bacaa-87e9-44d6-9627-8b60a7d87ee5/azureml-logs/75_job_post-tvmps_ce333ae60b7b4f92afa654ed5972d7a03e5e81edfdff0df0597f184fc22c4f5b_d.txt?sv=2019-02-02&sr=b&sig=1xyLvrQP6QyqLf2Q9yidRmlm6YKiVYO6v%2FZYJLc71Qw%3D&st=2019-12-05T15%3A49%3A00Z&se=2019-12-05T23%3A59%3A00Z&sp=r', 'azureml-logs/75_job_post-tvmps_dd3fb09298a257b5b86017a1e830f3364bb5d2e5aa492bbbab88f294de476c35_d.txt': 'https://jiatabsdstorage624362c64.blob.core.windows.net/azureml/ExperimentRun/dcid.dc7bacaa-87e9-44d6-9627-8b60a7d87ee5/azureml-logs/75_job_post-tvmps_dd3fb09298a257b5b86017a1e830f3364bb5d2e5aa492bbbab88f294de476c35_d.txt?sv=2019-02-02&sr=b&sig=W3fVfYNlvIP77d%2Fsfoxn%2Be6A7witcUqBoElu0e5eeMM%3D&st=2019-12-05T15%3A49%3A00Z&se=2019-12-05T23%3A59%3A00Z&sp=r', 'azureml-logs/process_info.json': 'https://jiatabsdstorage624362c64.blob.core.windows.net/azureml/ExperimentRun/dcid.dc7bacaa-87e9-44d6-9627-8b60a7d87ee5/azureml-logs/process_info.json?sv=2019-02-02&sr=b&sig=eMCwdIsHr5lQIRmmngXnHtnKu9vQ0uH2O1XPFb%2FJ%2FAs%3D&st=2019-12-05T15%3A49%3A00Z&se=2019-12-05T23%3A59%3A00Z&sp=r', 'azureml-logs/process_status.json': 'https://jiatabsdstorage624362c64.blob.core.windows.net/azureml/ExperimentRun/dcid.dc7bacaa-87e9-44d6-9627-8b60a7d87ee5/azureml-logs/process_status.json?sv=2019-02-02&sr=b&sig=iRtT%2BMrjYL4s7npLF9KcrRn7WuGDSq9Y7W%2BKRFAC3lQ%3D&st=2019-12-05T15%3A49%3A00Z&se=2019-12-05T23%3A59%3A00Z&sp=r', 'logs/azureml/0_201_azureml.log': 'https://jiatabsdstorage624362c64.blob.core.windows.net/azureml/ExperimentRun/dcid.dc7bacaa-87e9-44d6-9627-8b60a7d87ee5/logs/azureml/0_201_azureml.log?sv=2019-02-02&sr=b&sig=sAOBt9Wx8lm%2FFzjkXDT9zKjv2I4dIr1di6Hs92vX5p4%3D&st=2019-12-05T15%3A49%3A00Z&se=2019-12-05T23%3A59%3A00Z&sp=r', 'logs/azureml/1_113_azureml.log': 'https://jiatabsdstorage624362c64.blob.core.windows.net/azureml/ExperimentRun/dcid.dc7bacaa-87e9-44d6-9627-8b60a7d87ee5/logs/azureml/1_113_azureml.log?sv=2019-02-02&sr=b&sig=aYqfAbmi%2B2HMnJQVJyTnkeL1BM1dr7KHgEFJwml%2BxuE%3D&st=2019-12-05T15%3A49%3A00Z&se=2019-12-05T23%3A59%3A00Z&sp=r', 'logs/azureml/2_116_azureml.log': 'https://jiatabsdstorage624362c64.blob.core.windows.net/azureml/ExperimentRun/dcid.dc7bacaa-87e9-44d6-9627-8b60a7d87ee5/logs/azureml/2_116_azureml.log?sv=2019-02-02&sr=b&sig=c6YhbPSE5UMRC7jj7GUdO521ab66akl9eOiNiVIRUlY%3D&st=2019-12-05T15%3A49%3A00Z&se=2019-12-05T23%3A59%3A00Z&sp=r', 'logs/azureml/3_114_azureml.log': 'https://jiatabsdstorage624362c64.blob.core.windows.net/azureml/ExperimentRun/dcid.dc7bacaa-87e9-44d6-9627-8b60a7d87ee5/logs/azureml/3_114_azureml.log?sv=2019-02-02&sr=b&sig=Wmh8xoN9u0ULaqwjDu7jxaMM4W%2ByjeriexIHzy5Gv94%3D&st=2019-12-05T15%3A49%3A00Z&se=2019-12-05T23%3A59%3A00Z&sp=r', 'logs/azureml/azureml.log': 'https://jiatabsdstorage624362c64.blob.core.windows.net/azureml/ExperimentRun/dcid.dc7bacaa-87e9-44d6-9627-8b60a7d87ee5/logs/azureml/azureml.log?sv=2019-02-02&sr=b&sig=W75FR0iqE6QPlvXnEC%2FHdvjoDYuioPKYipySrT8sSRc%3D&st=2019-12-05T15%3A49%3A00Z&se=2019-12-05T23%3A59%3A00Z&sp=r', 'logs/azureml/executionlogs.txt': 'https://jiatabsdstorage624362c64.blob.core.windows.net/azureml/ExperimentRun/dcid.dc7bacaa-87e9-44d6-9627-8b60a7d87ee5/logs/azureml/executionlogs.txt?sv=2019-02-02&sr=b&sig=IKnXpVCfHsxcf9zdyXmc8xeseW4IH0g5HSCBMGHAhO0%3D&st=2019-12-05T15%3A49%3A00Z&se=2019-12-05T23%3A59%3A00Z&sp=r', 'logs/azureml/stderrlogs.txt': 'https://jiatabsdstorage624362c64.blob.core.windows.net/azureml/ExperimentRun/dcid.dc7bacaa-87e9-44d6-9627-8b60a7d87ee5/logs/azureml/stderrlogs.txt?sv=2019-02-02&sr=b&sig=10U8jtRhpT%2FGVCSTio7neYbW9voCh0ZOPdG7zI3kzoc%3D&st=2019-12-05T15%3A49%3A00Z&se=2019-12-05T23%3A59%3A00Z&sp=r', 'logs/azureml/stdoutlogs.txt': 'https://jiatabsdstorage624362c64.blob.core.windows.net/azureml/ExperimentRun/dcid.dc7bacaa-87e9-44d6-9627-8b60a7d87ee5/logs/azureml/stdoutlogs.txt?sv=2019-02-02&sr=b&sig=IHRby3nOBaXgufFggYnfmlrhrTKf2Wbbaq9hXrB7p8U%3D&st=2019-12-05T15%3A49%3A00Z&se=2019-12-05T23%3A59%3A00Z&sp=r'}}\n",
      "\n"
     ]
    },
    {
     "name": "stdout",
     "output_type": "stream",
     "text": [
      "\n",
      "\n",
      "\n",
      "StepRunId: 9d563b41-488d-476c-a5d7-207ea913ed82\n",
      "Link to Portal: https://ml.azure.com/experiments/style_transfer_mpi/runs/9d563b41-488d-476c-a5d7-207ea913ed82?wsid=/subscriptions/989b90f7-da4f-41f9-84c9-44848802052d/resourcegroups/jiata-bsdlaml-0/workspaces/jiata-bsdlaml-0\n",
      "StepRun( postprocess video ) Status: NotStarted\n",
      "StepRun( postprocess video ) Status: Running\n",
      "\n",
      "Streaming azureml-logs/55_azureml-execution-tvmps_2e7a5e04f6b9a47fce3ffb2d351ff4cd81ca68a0ad9f6fac516909d29f5e81b9_d.txt\n",
      "========================================================================================================================\n",
      "2019-12-05T15:59:23Z Starting output-watcher...\n",
      "Login Succeeded\n",
      "Using default tag: latest\n",
      "latest: Pulling from azureml/azureml_e7c61fe000f77e9812d4681c2e711220\n",
      "Digest: sha256:12c32fb6377897d20dda3ea3297847aa30799dfa51eb4ccef98d0c997337643c\n",
      "Status: Image is up to date for jiatabsdlaml65909f7d.azurecr.io/azureml/azureml_e7c61fe000f77e9812d4681c2e711220:latest\n",
      "1318e4b9ef2697247a749d39c68ae7349bb6b4958facceea67fb9005d8f7bd1c\n",
      "2019/12/05 15:59:25 Version: 3.0.01059.0002 Branch: master Commit: e8f402a4\n",
      "2019/12/05 15:59:26 sshd runtime has already been installed in the container\n",
      "ssh-keygen: /azureml-envs/azureml_8737fac4d5afd5b6f675b8e82f81f14f/lib/libcrypto.so.1.0.0: no version information available (required by ssh-keygen)\n",
      "ssh-keygen: /azureml-envs/azureml_8737fac4d5afd5b6f675b8e82f81f14f/lib/libcrypto.so.1.0.0: no version information available (required by ssh-keygen)\n",
      "bash: /azureml-envs/azureml_8737fac4d5afd5b6f675b8e82f81f14f/lib/libtinfo.so.5: no version information available (required by bash)\n",
      "bash: /azureml-envs/azureml_8737fac4d5afd5b6f675b8e82f81f14f/lib/libtinfo.so.5: no version information available (required by bash)\n",
      "\n",
      "Streaming azureml-logs/65_job_prep-tvmps_2e7a5e04f6b9a47fce3ffb2d351ff4cd81ca68a0ad9f6fac516909d29f5e81b9_d.txt\n",
      "===============================================================================================================\n",
      "bash: /azureml-envs/azureml_8737fac4d5afd5b6f675b8e82f81f14f/lib/libtinfo.so.5: no version information available (required by bash)\n",
      "Starting job preparation. Current time:2019-12-05T15:59:35.358712\n",
      "Extracting the control code.\n",
      "Creating directory: azureml-logs/\n",
      "Retrieving project from snapshot: 4a914ad8-cb4d-432d-93bb-f8c292764e44\n",
      "Starting the daemon thread to refresh tokens in background for process with pid = 97\n",
      "\n",
      "Streaming azureml-logs/70_driver_log.txt\n",
      "========================================\n",
      "bash: /azureml-envs/azureml_8737fac4d5afd5b6f675b8e82f81f14f/lib/libtinfo.so.5: no version information available (required by bash)\n",
      "bash: /azureml-envs/azureml_8737fac4d5afd5b6f675b8e82f81f14f/lib/libtinfo.so.5: no version information available (required by bash)\n",
      "Starting the daemon thread to refresh tokens in background for process with pid = 151\n",
      "Entering Run History Context Manager.\n",
      "ffmpeg version 4.2 Copyright (c) 2000-2019 the FFmpeg developers\n",
      "  built with gcc 7.3.0 (crosstool-NG 1.23.0.449-a04d0)\n",
      "  configuration: --prefix=/azureml-envs/azureml_8737fac4d5afd5b6f675b8e82f81f14f --cc=/home/conda/feedstock_root/build_artifacts/ffmpeg_1566210161358/_build_env/bin/x86_64-conda_cos6-linux-gnu-cc --disable-doc --disable-openssl --enable-avresample --enable-gnutls --enable-gpl --enable-hardcoded-tables --enable-libfreetype --enable-libopenh264 --enable-libx264 --enable-pic --enable-pthreads --enable-shared --enable-static --enable-version3 --enable-zlib --enable-libmp3lame\n",
      "  libavutil      56. 31.100 / 56. 31.100\n",
      "  libavcodec     58. 54.100 / 58. 54.100\n",
      "  libavformat    58. 29.100 / 58. 29.100\n",
      "  libavdevice    58.  8.100 / 58.  8.100\n",
      "  libavfilter     7. 57.100 /  7. 57.100\n",
      "  libavresample   4.  0.  0 /  4.  0.  0\n",
      "  libswscale      5.  5.100 /  5.  5.100\n",
      "  libswresample   3.  5.100 /  3.  5.100\n",
      "  libpostproc    55.  5.100 / 55.  5.100\n",
      "Input #0, image2, from '/mnt/batch/tasks/shared/LS_root/jobs/jiata-bsdlaml-0/azureml/9d563b41-488d-476c-a5d7-207ea913ed82/mounts/workspaceblobstore/azureml/dc7bacaa-87e9-44d6-9627-8b60a7d87ee5/processed_images/%05d_video.jpg':\n",
      "  Duration: 00:00:27.33, start: 0.000000, bitrate: N/A\n",
      "    Stream #0:0: Video: mjpeg (Baseline), yuvj420p(pc, bt470bg/unknown/unknown), 720x720 [SAR 1:1 DAR 1:1], 30 fps, 30 tbr, 30 tbn, 30 tbc\n",
      "Stream mapping:\n",
      "  Stream #0:0 -> #0:0 (mjpeg (native) -> h264 (libx264))\n",
      "Press [q] to stop, [?] for help\n",
      "[swscaler @ 0x55d06bd850c0] deprecated pixel format used, make sure you did set range correctly\n",
      "[libx264 @ 0x55d06bd10080] using SAR=1/1\n",
      "[libx264 @ 0x55d06bd10080] using cpu capabilities: MMX2 SSE2Fast SSSE3 SSE4.2 AVX FMA3 BMI2 AVX2\n",
      "[libx264 @ 0x55d06bd10080] profile High, level 3.1\n",
      "[libx264 @ 0x55d06bd10080] 264 - core 152 - H.264/MPEG-4 AVC codec - Copyleft 2003-2017 - http://www.videolan.org/x264.html - options: cabac=1 ref=3 deblock=1:0:0 analyse=0x3:0x113 me=hex subme=7 psy=1 psy_rd=1.00:0.00 mixed_ref=1 me_range=16 chroma_me=1 trellis=1 8x8dct=1 cqm=0 deadzone=21,11 fast_pskip=1 chroma_qp_offset=-2 threads=6 lookahead_threads=1 sliced_threads=0 nr=0 decimate=1 interlaced=0 bluray_compat=0 constrained_intra=0 bframes=3 b_pyramid=2 b_adapt=1 b_bias=0 direct=1 weightb=1 open_gop=0 weightp=2 keyint=250 keyint_min=25 scenecut=40 intra_refresh=0 rc_lookahead=40 rc=crf mbtree=1 crf=20.0 qcomp=0.60 qpmin=0 qpmax=69 qpstep=4 ip_ratio=1.40 aq=1:1.00\n",
      "Output #0, mp4, to '/mnt/batch/tasks/shared/LS_root/jobs/jiata-bsdlaml-0/azureml/9d563b41-488d-476c-a5d7-207ea913ed82/mounts/datastore/azureml/9d563b41-488d-476c-a5d7-207ea913ed82/output_video/video_without_audio.mp4':\n",
      "  Metadata:\n",
      "    encoder         : Lavf58.29.100\n",
      "    Stream #0:0: Video: h264 (libx264) (avc1 / 0x31637661), yuv420p, 720x720 [SAR 1:1 DAR 1:1], q=-1--1, 30 fps, 15360 tbn, 30 tbc\n",
      "    Metadata:\n",
      "      encoder         : Lavc58.54.100 libx264\n",
      "    Side data:\n",
      "      cpb: bitrate max/min/avg: 0/0/0 buffer size: 0 vbv_delay: -1\n",
      "frame=   40 fps=0.0 q=0.0 size=       0kB time=00:00:00.00 bitrate=N/A speed=   0x    \n",
      "frame=   52 fps= 48 q=26.0 size=       0kB time=-00:00:00.03 bitrate=N/A speed=N/A    \n",
      "frame=   66 fps= 42 q=26.0 size=    1536kB time=00:00:00.43 bitrate=29034.0kbits/s speed=0.273x    \n",
      "frame=   80 fps= 37 q=26.0 size=    2816kB time=00:00:00.90 bitrate=25630.4kbits/s speed=0.412x    \n",
      "frame=   94 fps= 34 q=26.0 size=    4352kB time=00:00:01.36 bitrate=26085.6kbits/s speed=0.501x    \n",
      "frame=  108 fps= 33 q=26.0 size=    5632kB time=00:00:01.83 bitrate=25165.1kbits/s speed=0.568x    \n",
      "frame=  123 fps= 33 q=26.0 size=    7168kB time=00:00:02.33 bitrate=25165.3kbits/s speed=0.619x    \n",
      "frame=  136 fps= 32 q=26.0 size=    8448kB time=00:00:02.76 bitrate=25013.8kbits/s speed=0.646x    \n",
      "frame=  151 fps= 31 q=26.0 size=    9984kB time=00:00:03.26 bitrate=25037.0kbits/s speed=0.678x    \n",
      "frame=  166 fps= 31 q=26.0 size=   11520kB time=00:00:03.76 bitrate=25054.1kbits/s speed=0.707x    \n",
      "frame=  180 fps= 31 q=26.0 size=   12800kB time=00:00:04.23 bitrate=24769.2kbits/s speed=0.725x    \n",
      "frame=  194 fps= 30 q=26.0 size=   14336kB time=00:00:04.70 bitrate=24987.1kbits/s speed=0.738x    \n",
      "frame=  208 fps= 30 q=26.0 size=   15616kB time=00:00:05.16 bitrate=24759.7kbits/s speed=0.752x    \n",
      "frame=  222 fps= 30 q=26.0 size=   16896kB time=00:00:05.63 bitrate=24570.0kbits/s speed=0.762x    \n",
      "frame=  236 fps= 30 q=26.0 size=   18432kB time=00:00:06.10 bitrate=24753.1kbits/s speed=0.771x    \n",
      "frame=  250 fps= 30 q=26.0 size=   19712kB time=00:00:06.56 bitrate=24590.8kbits/s speed=0.778x    \n",
      "frame=  265 fps= 29 q=26.0 size=   21248kB time=00:00:07.06 bitrate=24631.5kbits/s speed=0.78x    \n",
      "frame=  280 fps= 29 q=26.0 size=   22784kB time=00:00:07.56 bitrate=24666.8kbits/s speed=0.791x    \n",
      "frame=  295 fps= 29 q=26.0 size=   24320kB time=00:00:08.06 bitrate=24697.7kbits/s speed= 0.8x    \n",
      "frame=  308 fps= 29 q=26.0 size=   25600kB time=00:00:08.50 bitrate=24672.2kbits/s speed=0.803x    \n",
      "frame=  322 fps= 29 q=26.0 size=   26880kB time=00:00:08.96 bitrate=24557.6kbits/s speed=0.807x    \n",
      "frame=  337 fps= 29 q=26.0 size=   28416kB time=00:00:09.46 bitrate=24589.7kbits/s speed=0.813x    \n",
      "frame=  349 fps= 29 q=26.0 size=   29696kB time=00:00:09.86 bitrate=24655.6kbits/s speed=0.812x    \n",
      "frame=  364 fps= 29 q=26.0 size=   30976kB time=00:00:10.36 bitrate=24477.9kbits/s speed=0.819x    \n",
      "frame=  378 fps= 29 q=26.0 size=   32512kB time=00:00:10.83 bitrate=24585.0kbits/s speed=0.822x    \n",
      "frame=  392 fps= 29 q=26.0 size=   34048kB time=00:00:11.30 bitrate=24683.2kbits/s speed=0.825x    \n",
      "frame=  407 fps= 29 q=26.0 size=   35328kB time=00:00:11.80 bitrate=24525.9kbits/s speed=0.828x    \n"
     ]
    },
    {
     "name": "stdout",
     "output_type": "stream",
     "text": [
      "frame=  422 fps= 29 q=26.0 size=   36864kB time=00:00:12.30 bitrate=24551.9kbits/s speed=0.833x    \n",
      "frame=  437 fps= 29 q=26.0 size=   38400kB time=00:00:12.80 bitrate=24575.9kbits/s speed=0.836x    \n",
      "frame=  452 fps= 29 q=26.0 size=   39936kB time=00:00:13.30 bitrate=24598.1kbits/s speed=0.84x    \n",
      "frame=  466 fps= 28 q=26.0 size=   41216kB time=00:00:13.76 bitrate=24525.9kbits/s speed=0.841x    \n",
      "frame=  481 fps= 28 q=26.0 size=   42752kB time=00:00:14.26 bitrate=24548.4kbits/s speed=0.845x    \n",
      "frame=  495 fps= 28 q=26.0 size=   44032kB time=00:00:14.73 bitrate=24482.5kbits/s speed=0.847x    \n",
      "frame=  508 fps= 28 q=26.0 size=   45312kB time=00:00:15.16 bitrate=24474.4kbits/s speed=0.848x    \n",
      "frame=  523 fps= 28 q=26.0 size=   46848kB time=00:00:15.66 bitrate=24496.4kbits/s speed=0.852x    \n",
      "frame=  538 fps= 28 q=26.0 size=   48384kB time=00:00:16.16 bitrate=24517.1kbits/s speed=0.853x    \n",
      "frame=  552 fps= 28 q=26.0 size=   49664kB time=00:00:16.63 bitrate=24459.7kbits/s speed=0.853x    \n",
      "frame=  567 fps= 28 q=26.0 size=   51200kB time=00:00:17.13 bitrate=24480.3kbits/s speed=0.857x    \n",
      "frame=  580 fps= 28 q=26.0 size=   52480kB time=00:00:17.56 bitrate=24473.3kbits/s speed=0.856x    \n",
      "frame=  595 fps= 28 q=26.0 size=   54016kB time=00:00:18.06 bitrate=24492.5kbits/s speed=0.859x    \n",
      "frame=  609 fps= 28 q=26.0 size=   55296kB time=00:00:18.53 bitrate=24441.6kbits/s speed=0.859x    \n",
      "frame=  623 fps= 28 q=26.0 size=   56576kB time=00:00:19.00 bitrate=24393.1kbits/s speed=0.858x    \n",
      "frame=  640 fps= 28 q=26.0 size=   58368kB time=00:00:19.56 bitrate=24436.9kbits/s speed=0.864x    \n",
      "frame=  655 fps= 28 q=26.0 size=   59904kB time=00:00:20.06 bitrate=24455.1kbits/s speed=0.865x    \n",
      "frame=  670 fps= 28 q=26.0 size=   61184kB time=00:00:20.56 bitrate=24370.4kbits/s speed=0.867x    \n",
      "frame=  685 fps= 28 q=26.0 size=   62720kB time=00:00:21.06 bitrate=24389.3kbits/s speed=0.867x    \n",
      "frame=  701 fps= 28 q=26.0 size=   64256kB time=00:00:21.60 bitrate=24369.6kbits/s speed=0.869x    \n",
      "frame=  715 fps= 28 q=26.0 size=   65536kB time=00:00:22.06 bitrate=24329.4kbits/s speed=0.87x    \n",
      "frame=  730 fps= 28 q=26.0 size=   67072kB time=00:00:22.56 bitrate=24348.0kbits/s speed=0.872x    \n",
      "frame=  744 fps= 28 q=23.0 size=   68352kB time=00:00:23.03 bitrate=24309.9kbits/s speed=0.872x    \n",
      "frame=  758 fps= 28 q=26.0 size=   69888kB time=00:00:23.50 bitrate=24362.6kbits/s speed=0.872x    \n",
      "frame=  773 fps= 28 q=26.0 size=   71424kB time=00:00:24.00 bitrate=24379.3kbits/s speed=0.874x    \n",
      "frame=  786 fps= 28 q=26.0 size=   72704kB time=00:00:24.43 bitrate=24376.1kbits/s speed=0.87x    \n",
      "frame=  802 fps= 28 q=26.0 size=   74240kB time=00:00:24.96 bitrate=24359.4kbits/s speed=0.873x    \n",
      "frame=  815 fps= 28 q=26.0 size=   75520kB time=00:00:25.40 bitrate=24356.6kbits/s speed=0.872x    \n",
      "frame=  820 fps= 27 q=-1.0 Lsize=   81231kB time=00:00:27.23 bitrate=24435.0kbits/s speed=0.883x    \n",
      "video:81220kB audio:0kB subtitle:0kB other streams:0kB global headers:0kB muxing overhead: 0.013500%\n",
      "[libx264 @ 0x55d06bd10080] frame I:8     Avg QP:25.50  size:143835\n",
      "[libx264 @ 0x55d06bd10080] frame P:210   Avg QP:28.07  size:115783\n",
      "[libx264 @ 0x55d06bd10080] frame B:602   Avg QP:29.44  size: 95854\n",
      "[libx264 @ 0x55d06bd10080] consecutive B-frames:  1.7%  0.7%  1.5% 96.1%\n",
      "[libx264 @ 0x55d06bd10080] mb I  I16..4:  0.1% 94.6%  5.4%\n",
      "[libx264 @ 0x55d06bd10080] mb P  I16..4:  0.1% 52.3% 14.0%  P16..4:  4.6% 14.4% 14.5%  0.0%  0.0%    skip: 0.0%\n",
      "[libx264 @ 0x55d06bd10080] mb B  I16..4:  0.2% 14.7% 17.7%  B16..8: 10.4% 29.5% 23.2%  direct: 3.9%  skip: 0.5%  L0:38.6% L1:27.1% BI:34.3%\n",
      "[libx264 @ 0x55d06bd10080] 8x8 transform intra:59.8% inter:74.9%\n",
      "[libx264 @ 0x55d06bd10080] coded y,uvDC,uvAC intra: 95.2% 99.2% 82.3% inter: 88.8% 92.2% 35.8%\n",
      "[libx264 @ 0x55d06bd10080] i16 v,h,dc,p: 28% 14%  7% 51%\n",
      "[libx264 @ 0x55d06bd10080] i8 v,h,dc,ddl,ddr,vr,hd,vl,hu: 15% 10% 23%  9% 10% 11%  6% 10%  8%\n",
      "[libx264 @ 0x55d06bd10080] i4 v,h,dc,ddl,ddr,vr,hd,vl,hu: 14% 10% 15% 10% 13% 11%  9% 11%  8%\n",
      "[libx264 @ 0x55d06bd10080] i8c dc,h,v,p: 43% 20% 24% 13%\n",
      "[libx264 @ 0x55d06bd10080] Weighted P-Frames: Y:3.3% UV:1.0%\n",
      "[libx264 @ 0x55d06bd10080] ref P L0: 28.7% 16.6% 30.6% 23.5%  0.6%\n",
      "[libx264 @ 0x55d06bd10080] ref B L0: 67.0% 24.7%  8.3%\n",
      "[libx264 @ 0x55d06bd10080] ref B L1: 84.5% 15.5%\n",
      "[libx264 @ 0x55d06bd10080] kb/s:24342.17\n",
      "ffmpeg version 4.2 Copyright (c) 2000-2019 the FFmpeg developers\n",
      "  built with gcc 7.3.0 (crosstool-NG 1.23.0.449-a04d0)\n",
      "  configuration: --prefix=/azureml-envs/azureml_8737fac4d5afd5b6f675b8e82f81f14f --cc=/home/conda/feedstock_root/build_artifacts/ffmpeg_1566210161358/_build_env/bin/x86_64-conda_cos6-linux-gnu-cc --disable-doc --disable-openssl --enable-avresample --enable-gnutls --enable-gpl --enable-hardcoded-tables --enable-libfreetype --enable-libopenh264 --enable-libx264 --enable-pic --enable-pthreads --enable-shared --enable-static --enable-version3 --enable-zlib --enable-libmp3lame\n",
      "  libavutil      56. 31.100 / 56. 31.100\n",
      "  libavcodec     58. 54.100 / 58. 54.100\n",
      "  libavformat    58. 29.100 / 58. 29.100\n",
      "  libavdevice    58.  8.100 / 58.  8.100\n",
      "  libavfilter     7. 57.100 /  7. 57.100\n",
      "  libavresample   4.  0.  0 /  4.  0.  0\n",
      "  libswscale      5.  5.100 /  5.  5.100\n",
      "  libswresample   3.  5.100 /  3.  5.100\n",
      "  libpostproc    55.  5.100 / 55.  5.100\n",
      "Input #0, mov,mp4,m4a,3gp,3g2,mj2, from '/mnt/batch/tasks/shared/LS_root/jobs/jiata-bsdlaml-0/azureml/9d563b41-488d-476c-a5d7-207ea913ed82/mounts/datastore/azureml/9d563b41-488d-476c-a5d7-207ea913ed82/output_video/video_without_audio.mp4':\n",
      "  Metadata:\n",
      "    major_brand     : isom\n",
      "    minor_version   : 512\n",
      "    compatible_brands: isomiso2avc1mp41\n",
      "    encoder         : Lavf58.29.100\n",
      "  Duration: 00:00:27.33, start: 0.000000, bitrate: 24345 kb/s\n",
      "    Stream #0:0(und): Video: h264 (High) (avc1 / 0x31637661), yuv420p, 720x720 [SAR 1:1 DAR 1:1], 24342 kb/s, 30 fps, 30 tbr, 15360 tbn, 60 tbc (default)\n",
      "    Metadata:\n",
      "      handler_name    : VideoHandler\n",
      "[aac @ 0x5632b0e0da40] Estimating duration from bitrate, this may be inaccurate\n",
      "Input #1, aac, from '/mnt/batch/tasks/shared/LS_root/jobs/jiata-bsdlaml-0/azureml/9d563b41-488d-476c-a5d7-207ea913ed82/mounts/workspaceblobstore/azureml/1d72e487-2529-450a-9ac6-853e4eb10ce3/ffmpeg_audio/audio.aac':\n",
      "  Duration: 00:00:27.96, bitrate: 70 kb/s\n",
      "    Stream #1:0: Audio: aac (LC), 48000 Hz, mono, fltp, 70 kb/s\n",
      "Output #0, mp4, to '/mnt/batch/tasks/shared/LS_root/jobs/jiata-bsdlaml-0/azureml/9d563b41-488d-476c-a5d7-207ea913ed82/mounts/datastore/azureml/9d563b41-488d-476c-a5d7-207ea913ed82/output_video/video_processed.mp4':\n",
      "  Metadata:\n",
      "    major_brand     : isom\n",
      "    minor_version   : 512\n",
      "    compatible_brands: isomiso2avc1mp41\n",
      "    encoder         : Lavf58.29.100\n",
      "    Stream #0:0(und): Video: h264 (High) (avc1 / 0x31637661), yuv420p, 720x720 [SAR 1:1 DAR 1:1], q=2-31, 24342 kb/s, 30 fps, 30 tbr, 15360 tbn, 15360 tbc (default)\n",
      "    Metadata:\n",
      "      handler_name    : VideoHandler\n",
      "    Stream #0:1: Audio: aac (LC) (mp4a / 0x6134706D), 48000 Hz, mono, fltp, 70 kb/s\n",
      "Stream mapping:\n",
      "  Stream #0:0 -> #0:0 (copy)\n",
      "  Stream #1:0 -> #0:1 (copy)\n",
      "Press [q] to stop, [?] for help\n",
      "frame=  820 fps=0.0 q=-1.0 Lsize=   81484kB time=00:00:27.45 bitrate=24312.3kbits/s speed= 143x    \n",
      "video:81220kB audio:242kB subtitle:0kB other streams:0kB global headers:0kB muxing overhead: 0.026912%\n",
      "\n",
      "\n",
      "The experiment completed successfully. Finalizing run...\n",
      "Cleaning up all outstanding Run operations, waiting 300.0 seconds\n",
      "1 items cleaning up...\n",
      "Cleanup took 0.0009055137634277344 seconds\n",
      "\n",
      "Streaming azureml-logs/75_job_post-tvmps_2e7a5e04f6b9a47fce3ffb2d351ff4cd81ca68a0ad9f6fac516909d29f5e81b9_d.txt\n",
      "===============================================================================================================\n",
      "bash: /azureml-envs/azureml_8737fac4d5afd5b6f675b8e82f81f14f/lib/libtinfo.so.5: no version information available (required by bash)\n",
      "Starting job release. Current time:2019-12-05T16:00:27.388693\n",
      "Logging experiment finalizing status in history service.\n",
      "Starting the daemon thread to refresh tokens in background for process with pid = 197\n",
      "Job release is complete. Current time:2019-12-05T16:00:33.566935\n",
      "\n",
      "StepRun(postprocess video) Execution Summary\n",
      "=============================================\n",
      "StepRun( postprocess video ) Status: Finished\n"
     ]
    },
    {
     "name": "stdout",
     "output_type": "stream",
     "text": [
      "{'runId': '9d563b41-488d-476c-a5d7-207ea913ed82', 'target': 'ffmpeg-cluster', 'status': 'Completed', 'startTimeUtc': '2019-12-05T15:59:22.557975Z', 'endTimeUtc': '2019-12-05T16:00:48.134289Z', 'properties': {'azureml.runsource': 'azureml.StepRun', 'ContentSnapshotId': '4a914ad8-cb4d-432d-93bb-f8c292764e44', 'StepType': 'PythonScriptStep', 'ComputeTargetType': 'AmlCompute', 'azureml.pipelinerunid': '38c3f15c-e618-44e8-8f19-cd06ec19998f', '_azureml.ComputeTargetType': 'batchai', 'AzureML.DerivedImageName': 'azureml/azureml_e7c61fe000f77e9812d4681c2e711220', 'ProcessInfoFile': 'azureml-logs/process_info.json', 'ProcessStatusFile': 'azureml-logs/process_status.json'}, 'inputDatasets': [], 'runDefinition': {'script': 'postprocess_video.py', 'arguments': ['--images-dir', '$AZUREML_DATAREFERENCE_processed_images', '--input-audio', '$AZUREML_DATAREFERENCE_ffmpeg_audio', '--output-dir', '$AZUREML_DATAREFERENCE_output_video'], 'sourceDirectoryDataStore': None, 'framework': 'Python', 'communicator': 'None', 'target': 'ffmpeg-cluster', 'dataReferences': {'processed_images': {'dataStoreName': 'workspaceblobstore', 'mode': 'Mount', 'pathOnDataStore': 'azureml/dc7bacaa-87e9-44d6-9627-8b60a7d87ee5/processed_images', 'pathOnCompute': None, 'overwrite': False}, 'ffmpeg_audio': {'dataStoreName': 'workspaceblobstore', 'mode': 'Mount', 'pathOnDataStore': 'azureml/1d72e487-2529-450a-9ac6-853e4eb10ce3/ffmpeg_audio', 'pathOnCompute': None, 'overwrite': False}, 'output_video': {'dataStoreName': 'datastore', 'mode': 'Mount', 'pathOnDataStore': 'azureml/9d563b41-488d-476c-a5d7-207ea913ed82/output_video', 'pathOnCompute': None, 'overwrite': False}}, 'data': {}, 'jobName': None, 'maxRunDurationSeconds': None, 'nodeCount': 1, 'environment': {'name': 'Experiment style_transfer_mpi Environment', 'version': 'Autosave_2019-12-04T20:58:56Z_a6b60193', 'python': {'interpreterPath': 'python', 'userManagedDependencies': False, 'condaDependencies': {'channels': ['conda-forge'], 'dependencies': ['python=3.6.2', {'pip': ['azureml-defaults']}, 'ffmpeg'], 'name': 'azureml_8737fac4d5afd5b6f675b8e82f81f14f'}, 'baseCondaEnvironment': None}, 'environmentVariables': {'EXAMPLE_ENV_VAR': 'EXAMPLE_VALUE'}, 'docker': {'baseImage': 'mcr.microsoft.com/azureml/base:intelmpi2018.3-ubuntu16.04', 'baseDockerfile': None, 'baseImageRegistry': {'address': None, 'username': None, 'password': None}, 'enabled': True, 'shmSize': '1g'}, 'spark': {'repositories': ['[]'], 'packages': [], 'precachePackages': False}, 'inferencingStackVersion': None}, 'history': {'outputCollection': True, 'directoriesToWatch': ['logs']}, 'spark': {'configuration': {'spark.app.name': 'Azure ML Experiment', 'spark.yarn.maxAppAttempts': '1'}}, 'amlCompute': {'name': None, 'vmSize': None, 'retainCluster': False, 'clusterMaxNodeCount': 1}, 'tensorflow': {'workerCount': 1, 'parameterServerCount': 1}, 'mpi': {'processCountPerNode': 1}, 'hdi': {'yarnDeployMode': 'Cluster'}, 'containerInstance': {'region': None, 'cpuCores': 2, 'memoryGb': 3.5}, 'exposedPorts': None, 'docker': {'useDocker': True, 'sharedVolumes': True, 'shmSize': '1g', 'arguments': []}}, 'logFiles': {'azureml-logs/55_azureml-execution-tvmps_2e7a5e04f6b9a47fce3ffb2d351ff4cd81ca68a0ad9f6fac516909d29f5e81b9_d.txt': 'https://jiatabsdstorage624362c64.blob.core.windows.net/azureml/ExperimentRun/dcid.9d563b41-488d-476c-a5d7-207ea913ed82/azureml-logs/55_azureml-execution-tvmps_2e7a5e04f6b9a47fce3ffb2d351ff4cd81ca68a0ad9f6fac516909d29f5e81b9_d.txt?sv=2019-02-02&sr=b&sig=sfsCl0GQ24RTSgMkSbWa7GqckgByIZMBfyY78WrVW3A%3D&st=2019-12-05T15%3A50%3A59Z&se=2019-12-06T00%3A00%3A59Z&sp=r', 'azureml-logs/65_job_prep-tvmps_2e7a5e04f6b9a47fce3ffb2d351ff4cd81ca68a0ad9f6fac516909d29f5e81b9_d.txt': 'https://jiatabsdstorage624362c64.blob.core.windows.net/azureml/ExperimentRun/dcid.9d563b41-488d-476c-a5d7-207ea913ed82/azureml-logs/65_job_prep-tvmps_2e7a5e04f6b9a47fce3ffb2d351ff4cd81ca68a0ad9f6fac516909d29f5e81b9_d.txt?sv=2019-02-02&sr=b&sig=5ZT5PbPkiAN3aap0ya37sGq4TDB5V6LZ6opl%2BQqsFME%3D&st=2019-12-05T15%3A50%3A59Z&se=2019-12-06T00%3A00%3A59Z&sp=r', 'azureml-logs/70_driver_log.txt': 'https://jiatabsdstorage624362c64.blob.core.windows.net/azureml/ExperimentRun/dcid.9d563b41-488d-476c-a5d7-207ea913ed82/azureml-logs/70_driver_log.txt?sv=2019-02-02&sr=b&sig=MjrBUUW2UaI09ztgAsnW2vnJ6vxd5biMhhneS08OnYc%3D&st=2019-12-05T15%3A50%3A59Z&se=2019-12-06T00%3A00%3A59Z&sp=r', 'azureml-logs/75_job_post-tvmps_2e7a5e04f6b9a47fce3ffb2d351ff4cd81ca68a0ad9f6fac516909d29f5e81b9_d.txt': 'https://jiatabsdstorage624362c64.blob.core.windows.net/azureml/ExperimentRun/dcid.9d563b41-488d-476c-a5d7-207ea913ed82/azureml-logs/75_job_post-tvmps_2e7a5e04f6b9a47fce3ffb2d351ff4cd81ca68a0ad9f6fac516909d29f5e81b9_d.txt?sv=2019-02-02&sr=b&sig=M0c%2Bs3IYUptrOHN3HHPqEMZ0MclLAPneGkMqCgd4hEw%3D&st=2019-12-05T15%3A50%3A59Z&se=2019-12-06T00%3A00%3A59Z&sp=r', 'azureml-logs/process_info.json': 'https://jiatabsdstorage624362c64.blob.core.windows.net/azureml/ExperimentRun/dcid.9d563b41-488d-476c-a5d7-207ea913ed82/azureml-logs/process_info.json?sv=2019-02-02&sr=b&sig=khgjpB7ngl9o8mbK95SZPcJ1sHkDRZy7LGBGR7nyOmA%3D&st=2019-12-05T15%3A50%3A59Z&se=2019-12-06T00%3A00%3A59Z&sp=r', 'azureml-logs/process_status.json': 'https://jiatabsdstorage624362c64.blob.core.windows.net/azureml/ExperimentRun/dcid.9d563b41-488d-476c-a5d7-207ea913ed82/azureml-logs/process_status.json?sv=2019-02-02&sr=b&sig=t%2BSCKUtXQi6QcSVm9YMbjkdMRszhwVz9vAVX694e%2Bjw%3D&st=2019-12-05T15%3A50%3A59Z&se=2019-12-06T00%3A00%3A59Z&sp=r', 'logs/azureml/151_azureml.log': 'https://jiatabsdstorage624362c64.blob.core.windows.net/azureml/ExperimentRun/dcid.9d563b41-488d-476c-a5d7-207ea913ed82/logs/azureml/151_azureml.log?sv=2019-02-02&sr=b&sig=oLPUuP5OJBv6ioRvsGQL8wPs566zRdLxzoRDEUJvalI%3D&st=2019-12-05T15%3A50%3A59Z&se=2019-12-06T00%3A00%3A59Z&sp=r', 'logs/azureml/azureml.log': 'https://jiatabsdstorage624362c64.blob.core.windows.net/azureml/ExperimentRun/dcid.9d563b41-488d-476c-a5d7-207ea913ed82/logs/azureml/azureml.log?sv=2019-02-02&sr=b&sig=r3666lKvjB0gv4FFMItI8iookBKH%2BzPxrsZxUGOWmws%3D&st=2019-12-05T15%3A50%3A59Z&se=2019-12-06T00%3A00%3A59Z&sp=r', 'logs/azureml/executionlogs.txt': 'https://jiatabsdstorage624362c64.blob.core.windows.net/azureml/ExperimentRun/dcid.9d563b41-488d-476c-a5d7-207ea913ed82/logs/azureml/executionlogs.txt?sv=2019-02-02&sr=b&sig=3Btqf1oYxEtIXeuAB54O0ib%2FKPfdP4YYk8oNWkS8wMM%3D&st=2019-12-05T15%3A50%3A59Z&se=2019-12-06T00%3A00%3A59Z&sp=r', 'logs/azureml/stderrlogs.txt': 'https://jiatabsdstorage624362c64.blob.core.windows.net/azureml/ExperimentRun/dcid.9d563b41-488d-476c-a5d7-207ea913ed82/logs/azureml/stderrlogs.txt?sv=2019-02-02&sr=b&sig=WlyvBa394K2GIpHELnP1QnK%2FKR3cGQnox5hHjxzpJUY%3D&st=2019-12-05T15%3A50%3A59Z&se=2019-12-06T00%3A00%3A59Z&sp=r', 'logs/azureml/stdoutlogs.txt': 'https://jiatabsdstorage624362c64.blob.core.windows.net/azureml/ExperimentRun/dcid.9d563b41-488d-476c-a5d7-207ea913ed82/logs/azureml/stdoutlogs.txt?sv=2019-02-02&sr=b&sig=vdKuUI4JQ2wIUn7xtSlnXBG4kP31B40F9G%2FxE9j3qug%3D&st=2019-12-05T15%3A50%3A59Z&se=2019-12-06T00%3A00%3A59Z&sp=r'}}\n",
      "\n",
      "\n",
      "\n",
      "PipelineRun Execution Summary\n",
      "==============================\n",
      "PipelineRun Status: Finished\n",
      "{'runId': '38c3f15c-e618-44e8-8f19-cd06ec19998f', 'status': 'Completed', 'startTimeUtc': '2019-12-05T15:50:27.604305Z', 'endTimeUtc': '2019-12-05T16:01:04.656716Z', 'properties': {'azureml.runsource': 'azureml.PipelineRun', 'runSource': None, 'runType': 'HTTP', 'azureml.parameters': '{}'}, 'inputDatasets': [], 'logFiles': {'logs/azureml/executionlogs.txt': 'https://jiatabsdstorage624362c64.blob.core.windows.net/azureml/ExperimentRun/dcid.38c3f15c-e618-44e8-8f19-cd06ec19998f/logs/azureml/executionlogs.txt?sv=2019-02-02&sr=b&sig=JoQfQLik%2B3PPGWu5aSsoPFygoxb%2F2s8I7xDhwLlvHWU%3D&st=2019-12-05T15%3A51%3A07Z&se=2019-12-06T00%3A01%3A07Z&sp=r', 'logs/azureml/stderrlogs.txt': 'https://jiatabsdstorage624362c64.blob.core.windows.net/azureml/ExperimentRun/dcid.38c3f15c-e618-44e8-8f19-cd06ec19998f/logs/azureml/stderrlogs.txt?sv=2019-02-02&sr=b&sig=SwK9HzDSmJogR9y2DCrAgX74bahaX3gDPvooBaXbupo%3D&st=2019-12-05T15%3A51%3A07Z&se=2019-12-06T00%3A01%3A07Z&sp=r', 'logs/azureml/stdoutlogs.txt': 'https://jiatabsdstorage624362c64.blob.core.windows.net/azureml/ExperimentRun/dcid.38c3f15c-e618-44e8-8f19-cd06ec19998f/logs/azureml/stdoutlogs.txt?sv=2019-02-02&sr=b&sig=lokxH4%2B%2Fvs1nRXW97HNXuKkp2JnJqqRQ4K%2BXUc%2FWm4A%3D&st=2019-12-05T15%3A51%3A07Z&se=2019-12-06T00%3A01%3A07Z&sp=r'}}\n",
      "\n"
     ]
    },
    {
     "data": {
      "text/plain": [
       "'Finished'"
      ]
     },
     "execution_count": 25,
     "metadata": {},
     "output_type": "execute_result"
    }
   ],
   "source": [
    "pipeline_run.wait_for_completion(show_output=True)"
   ]
  },
  {
   "cell_type": "markdown",
   "metadata": {},
   "source": [
    "### Download the output video"
   ]
  },
  {
   "cell_type": "markdown",
   "metadata": {},
   "source": [
    "Get the step id of the postprocessing step"
   ]
  },
  {
   "cell_type": "code",
   "execution_count": 26,
   "metadata": {},
   "outputs": [],
   "source": [
    "step_id = pipeline_run.find_step_run(\"postprocess video\")[0].id"
   ]
  },
  {
   "cell_type": "markdown",
   "metadata": {},
   "source": [
    "Download the output files from the postprocessing step"
   ]
  },
  {
   "cell_type": "code",
   "execution_count": 27,
   "metadata": {},
   "outputs": [
    {
     "data": {
      "text/plain": [
       "2"
      ]
     },
     "execution_count": 27,
     "metadata": {},
     "output_type": "execute_result"
    }
   ],
   "source": [
    "my_datastore.download(\n",
    "    target_path=\"aml_test_orangutan\", \n",
    "    prefix=step_id, \n",
    ")"
   ]
  },
  {
   "cell_type": "markdown",
   "metadata": {},
   "source": [
    "Display the generated output video that we just downloaded"
   ]
  },
  {
   "cell_type": "code",
   "execution_count": 28,
   "metadata": {},
   "outputs": [
    {
     "data": {
      "text/html": [
       "\n",
       "    <video width=\"320\" height=\"240\" controls>\n",
       "        <source src=\"aml_test_orangutan/9d563b41-488d-476c-a5d7-207ea913ed82/output_video/video_processed.mp4\" type=\"video/mp4\">\n",
       "    </video>\n"
      ],
      "text/plain": [
       "<IPython.core.display.HTML object>"
      ]
     },
     "metadata": {},
     "output_type": "display_data"
    }
   ],
   "source": [
    "display(HTML(\"\"\"\n",
    "    <video width=\"320\" height=\"240\" controls>\n",
    "        <source src=\"aml_test_orangutan/{}/output_video/video_processed.mp4\" type=\"video/mp4\">\n",
    "    </video>\n",
    "\"\"\".format(step_id)))"
   ]
  },
  {
   "cell_type": "markdown",
   "metadata": {},
   "source": [
    "### Publish the pipeline"
   ]
  },
  {
   "cell_type": "markdown",
   "metadata": {},
   "source": [
    "The last step is to publish the pipeline so that the pipeline can be triggered on an http endpoint. We'll use Logic Apps in the next notebook to consume this endpoint."
   ]
  },
  {
   "cell_type": "code",
   "execution_count": 29,
   "metadata": {},
   "outputs": [],
   "source": [
    "published_pipeline = pipeline.publish(\n",
    "    name=\"style transfer\", \n",
    "    description=\"some description\"\n",
    ")"
   ]
  },
  {
   "cell_type": "code",
   "execution_count": 30,
   "metadata": {
    "tags": [
     "stripout"
    ]
   },
   "outputs": [
    {
     "data": {
      "text/plain": [
       "(True, 'AML_PUBLISHED_PIPELINE_ID', 'b5267c9a-fb93-44dd-b683-b3131f5e326d')"
      ]
     },
     "execution_count": 30,
     "metadata": {},
     "output_type": "execute_result"
    }
   ],
   "source": [
    "published_pipeline_id = published_pipeline.id\n",
    "set_key(env_path, \"AML_PUBLISHED_PIPELINE_ID\", published_pipeline_id)"
   ]
  },
  {
   "cell_type": "markdown",
   "metadata": {},
   "source": [
    "### Test the published pipeline"
   ]
  },
  {
   "cell_type": "code",
   "execution_count": 31,
   "metadata": {
    "tags": [
     "stripout"
    ]
   },
   "outputs": [],
   "source": [
    "# cli_auth = AzureCliAuthentication()\n",
    "# aad_token = cli_auth.get_authentication_header()\n",
    "\n",
    "# response = requests.post(\n",
    "#     published_pipeline.endpoint, \n",
    "#     headers=aad_token, \n",
    "#     json={\n",
    "#         \"ExperimentName\": \"My_Pipeline\",\n",
    "#         \"DataPathAssignments\": {\n",
    "#             \"video_path\": {\"DataStoreName\": my_datastore_name,\n",
    "#                            \"RelativePath\": \"orangutan.mp4\"}\n",
    "#         }\n",
    "#     }\n",
    "# )\n",
    "\n",
    "# run_id = response.json()[\"Id\"]\n",
    "# print(run_id)"
   ]
  },
  {
   "cell_type": "markdown",
   "metadata": {},
   "source": [
    "### Schedule the published pipeline to run regularly"
   ]
  },
  {
   "cell_type": "markdown",
   "metadata": {},
   "source": [
    "This step shows how to schedule the published pipeline to run regularly. This will also submit an initial run since a starting time for the schedule is not supplied."
   ]
  },
  {
   "cell_type": "code",
   "execution_count": 34,
   "metadata": {},
   "outputs": [],
   "source": [
    "schedule_name = \"style_transfer\"\n",
    "experiment_name = \"style_transfer_mpi\"\n",
    "frequency = \"Hour\"\n",
    "interval = 1\n",
    "recurrence = ScheduleRecurrence(frequency=frequency, interval=interval)\n",
    "schedule = Schedule.create(\n",
    "    workspace=ws,\n",
    "    name=schedule_name,\n",
    "    pipeline_id=published_pipeline.id,\n",
    "    experiment_name=experiment_name,\n",
    "    recurrence=recurrence,\n",
    "    description=schedule_name\n",
    ")"
   ]
  },
  {
   "cell_type": "markdown",
   "metadata": {},
   "source": [
    "### Write out URI"
   ]
  },
  {
   "cell_type": "markdown",
   "metadata": {},
   "source": [
    "Write the URI to the statistics tracker."
   ]
  },
  {
   "cell_type": "code",
   "execution_count": 35,
   "metadata": {},
   "outputs": [],
   "source": [
    "statisticsCollector.addEntry(\n",
    "    CollectionEntry.AKS_REALTIME_ENDPOINT,\n",
    "    published_pipeline.endpoint\n",
    ")"
   ]
  },
  {
   "cell_type": "markdown",
   "metadata": {},
   "source": [
    "Get a connection string to the workspace's storage to use to save the statistics.\n",
    "\n"
   ]
  },
  {
   "cell_type": "code",
   "execution_count": 36,
   "metadata": {
    "tags": [
     "storageConnString"
    ]
   },
   "outputs": [],
   "source": [
    "storageConnString = \"YOUR_STORAGE_CONNECTION_STRING\""
   ]
  },
  {
   "cell_type": "code",
   "execution_count": 37,
   "metadata": {},
   "outputs": [
    {
     "name": "stdout",
     "output_type": "stream",
     "text": [
      "storage_conn_string: DefaultEndpointsProtocol=https;AccountName=jiatabsdstorage624362c64;AccountKey=CnjYRGRhWyRrvRIeM633puHpzmFeVKzE5gFbUS+5J/xf9fsdE8+bG3qe62Q0XxGLPuSMIRRZ/NHpZ7smCG5dbw==;EndpointSuffix=core.windows.net\n"
     ]
    }
   ],
   "source": [
    "if storageConnString == \"YOUR_STORAGE_CONNECTION_STRING\":\n",
    "    resource_group = ws.resource_group\n",
    "    stgAcctName = ws.get_details()['storageAccount'].split('/')[-1]\n",
    "    storageConnString = storageConnection.getConnectionStringWithAzCredentials(resource_group, stgAcctName)\n",
    "print(\"storage_conn_string: {}\".format(storageConnString))"
   ]
  },
  {
   "cell_type": "markdown",
   "metadata": {},
   "source": [
    "Save the statistics collected so far."
   ]
  },
  {
   "cell_type": "code",
   "execution_count": 38,
   "metadata": {},
   "outputs": [],
   "source": [
    "statisticsCollector.uploadContent(storageConnString)"
   ]
  },
  {
   "cell_type": "markdown",
   "metadata": {},
   "source": [
    "---"
   ]
  },
  {
   "cell_type": "markdown",
   "metadata": {},
   "source": [
    "You are now ready to move on to the [next notebook](04_deploy_logic_apps.ipynb)."
   ]
  }
 ],
 "metadata": {
  "kernelspec": {
   "display_name": "Python [conda env:batchscoringdl_aml]",
   "language": "python",
   "name": "conda-env-batchscoringdl_aml-py"
  },
  "language_info": {
   "codemirror_mode": {
    "name": "ipython",
    "version": 3
   },
   "file_extension": ".py",
   "mimetype": "text/x-python",
   "name": "python",
   "nbconvert_exporter": "python",
   "pygments_lexer": "ipython3",
   "version": "3.6.7"
  },
  "pycharm": {
   "stem_cell": {
    "cell_type": "raw",
    "metadata": {
     "collapsed": false
    },
    "source": []
   }
  }
 },
 "nbformat": 4,
 "nbformat_minor": 2
}
